ifElse.sfdir
StartChar: quotedbl
Encoding: 34 34 57
Width: 1024
VWidth: 0
Flags: W
HStem: 896 640<384 512 768 896>
VStem: 384 128<896 1536> 768 128<896 1536>
LayerCount: 5
Back
Fore
SplineSet
384 1536 m 5
 512 1536 l 5
 512 896 l 5
 384 896 l 5
 384 1536 l 5
768 1536 m 5
 896 1536 l 5
 896 896 l 5
 768 896 l 5
 768 1536 l 5
EndSplineSet
Layer: 2
Layer: 3
Layer: 4
EndChar
StartChar: dollar
Encoding: 36 36 59
Width: 1024
VWidth: 0
Flags: W
VStem: 234 128<837.396 1102.51> 512 128<-128 117 1289.1 1536> 800 128<311.115 569.813>
LayerCount: 5
Back
SplineSet
570 1176 m 4
 379 1176 280 1110.08955224 280 972 c 4
 280 864.751091703 337.739700627 818.922319309 412 787 c 4
 522.405943659 739.539730962 660.002905153 764.937645721 792 731 c 4
 920.272533605 698.019972627 1040 619.184971098 1040 439 c 4
 1040 235.953964194 897 112 582 112 c 4
 445.999571064 112 276.137488157 138.906425071 128 167.293945312 c 5
 128 290.702148438 l 5
 276.307880797 261.064506439 449.031552658 232 582 232 c 4
 814 232 912 285.881918819 912 439 c 4
 912 564.726495726 832.271583407 600.89824245 744 619 c 4
 613.259301112 645.810852846 486.643107786 618.942672821 348 683 c 4
 239.790392331 732.996125686 152 816.612612613 152 972 c 4
 152 1157.31958763 288 1296 570 1296 c 4
 689.178791387 1296 853.581259254 1264.71341786 994 1232.71972656 c 5
 994 1108.33203125 l 5
 852.819887124 1141.8337307 686.259603955 1176 570 1176 c 4
EndSplineSet
Fore
SplineSet
640 117 m 5
 640 -128 l 5
 512 -128 l 5
 512 114 l 5
 430 120 336 139 256 154 c 5
 256 277 l 5
 351 257 480 232 567 232 c 4
 755 232 800 359 800 441 c 4
 800 525 757 586 700 616 c 4
 612 662 503 633 402 685 c 4
 318 728 234 824 234 968 c 4
 234 1112 324 1265 512 1292 c 5
 512 1536 l 5
 640 1536 l 5
 640 1293 l 5
 725 1286 809 1270 886 1255 c 5
 886 1132 l 5
 788 1151 665 1176 572 1176 c 4
 410 1176 362 1052 362 968 c 4
 362 884 404 827 450 799 c 4
 536 746 651 781 762 722 c 4
 855 673 928 573 928 441 c 4
 928 293 834 146 640 117 c 5
EndSplineSet
Layer: 2
Layer: 3
Layer: 4
Substitution2: "'ss09' Style Set 9 lookup 10-1" dollar.alt
EndChar
StartChar: plus
Encoding: 43 43 66
Width: 1024
VWidth: 0
Flags: W
HStem: 644 120<128 512 640 1024>
VStem: 512 128<256 644 764 1152>
LayerCount: 5
Back
Fore
SplineSet
640 764 m 5
 1024 764 l 5
 1024 644 l 5
 640 644 l 5
 640 256 l 5
 512 256 l 5
 512 644 l 5
 128 644 l 5
 128 764 l 5
 512 764 l 5
 512 1152 l 5
 640 1152 l 5
 640 764 l 5
EndSplineSet
Layer: 2
Layer: 3
Layer: 4
EndChar
StartChar: comma
Encoding: 44 44 67
Width: 1024
VWidth: 0
Flags: W
HStem: -256 640<384 512>
VStem: 384 128<-256 -184.32>
LayerCount: 5
Back
Fore
SplineSet
384 384 m 5
 640 384 l 5
 512 -256 l 5
 384 -256 l 5
 384 384 l 5
EndSplineSet
Layer: 2
Layer: 3
Layer: 4
EndChar
StartChar: hyphen
Encoding: 45 45 55
Width: 1024
VWidth: 0
Flags: W
HStem: 644 120<256 896>
VStem: 256 640<644 764>
LayerCount: 5
Back
Fore
SplineSet
256 764 m 1
 896 764 l 1
 896 644 l 1
 256 644 l 1
 256 764 l 1
EndSplineSet
Layer: 2
Layer: 3
Layer: 4
EndChar
StartChar: slash
Encoding: 47 47 69
Width: 1024
VWidth: 0
Flags: W
LayerCount: 5
Back
Fore
SplineSet
112 -128 m 5
 901 1537 l 5
 1041 1537 l 5
 252 -128 l 5
 112 -128 l 5
EndSplineSet
Layer: 2
SplineSet
0 -512 m 29
 1152 1920 l 1053
EndSplineSet
Layer: 3
Layer: 4
EndChar
StartChar: six
Encoding: 54 54 76
Width: 1024
VWidth: 0
Flags: W
HStem: -16 120<460.619 723.482> 792 120<466.537 723.905> 1304 120<474.773 765.586>
VStem: 256 128<188.891 707.109 787 1205.98> 800 128<188.488 707.747>
LayerCount: 5
Back
Fore
SplineSet
800 448 m 0
 800 635 779 792 592 792 c 0
 405 792 384 635 384 448 c 0
 384 261 405 104 592 104 c 0
 779 104 800 261 800 448 c 0
612 912 m 0
 760 912 857 829 900 712 c 0
 928 635 928 550 928 448 c 0
 928 366 928 271 896 184 c 0
 853 67 750 -16 592 -16 c 0
 434 -16 332 67 288 184 c 0
 263 251 256 321 256 415 c 2
 256 992 l 2
 256 1052 256 1163 317 1265 c 0
 372 1357 468 1424 616 1424 c 0
 666 1424 717 1418 768 1409 c 1
 768 1287 l 1
 716 1296 664 1304 616 1304 c 0
 520 1304 465 1265 428 1206 c 0
 384 1135 384 1039 384 992 c 2
 384 787 l 1
 394 787 l 1
 449 872 514 912 612 912 c 0
EndSplineSet
Layer: 2
SplineSet
592 852 m 4
 569.874950019 852 547.708987409 850.270562295 526 846 c 4
 485.669098677 838.066160283 447.076701406 820.262547848 416.241313788 793.083396194 c 4
 385.40592617 765.904244539 362.748306891 730.14912327 348.306511624 691.665854651 c 4
 319.422921089 614.699317412 319.999999999 530.20772261 320 448 c 4
 320 365.79227739 319.422921091 281.300682587 348.306511626 204.334145348 c 4
 362.748306893 165.850876729 385.405926172 130.09575546 416.241313789 102.916603806 c 4
 447.076701407 75.7374521517 485.669098677 57.9338397167 526 50 c 4
 547.708987409 45.7294377049 569.874950019 44 592 44 c 4
 614.125049981 44 636.291012591 45.7294377049 658 50 c 4
 698.330901323 57.9338397167 736.923298594 75.7374521519 767.758686212 102.916603806 c 4
 798.59407383 130.095755461 821.251693109 165.85087673 835.693488376 204.334145349 c 4
 864.577078911 281.300682588 864.000000001 365.79227739 864 448 c 4
 864 530.20772261 864.577078909 614.699317413 835.693488374 691.665854652 c 4
 821.251693107 730.149123271 798.594073828 765.90424454 767.758686211 793.083396194 c 4
 736.923298593 820.262547848 698.330901323 838.066160283 658 846 c 4
 636.291012591 850.270562295 614.125049981 852 592 852 c 4
  Spiro
    592 852 o
    526 846 o
    320 448 o
    526 50 o
    592 44 o
    658 50 o
    864 448 o
    658 846 o
    0 0 z
  EndSpiro
EndSplineSet
Layer: 3
Layer: 4
EndChar
StartChar: eight
Encoding: 56 56 78
Width: 1024
VWidth: 0
Flags: W
HStem: -16 120<441.047 710.953> 644 120<450.155 701.845> 1304 120<451.659 700.341>
VStem: 224 128<195.718 550.587> 244 128<848.581 1219.37> 780 128<848.581 1219.37> 800 128<195.718 550.587>
CounterMasks: 1 e0
LayerCount: 5
Back
Fore
SplineSet
780 1034 m 4xec
 780 1181 726 1304 576 1304 c 4
 426 1304 372 1181 372 1034 c 4
 372 887 426 764 576 764 c 4
 726 764 780 887 780 1034 c 4xec
  Spiro
    780 1034 o
    760.485 1169.21 o
    695.465 1266.74 o
    576 1304 o
    456.535 1266.74 o
    391.515 1169.21 o
    372 1034 o
    391.515 898.787 o
    456.535 801.262 o
    576 764 o
    695.465 801.262 o
    760.485 898.787 o
    0 0 z
  EndSpiro
407 712 m 5
 286.614379085 780.929663609 244 900.079510703 244 1034 c 4
 244 1248 352 1424 576 1424 c 4
 800 1424 908 1248 908 1034 c 4xec
 908 900.079510703 865.385620915 780.929663609 745 712 c 5
 745 702 l 5
 876.167630058 635.021021021 928 513.867867868 928 374 c 4
 928 156 805 -16 576 -16 c 4
 347 -16 224 156 224 374 c 4xf2
 224 513.867867868 275.832369942 635.021021021 407 702 c 5
 407 712 l 5
576 644 m 4
 420 644 352 526 352 374 c 4
 352 222 420 104 576 104 c 4
 732 104 800 222 800 374 c 4xf2
 800 526 732 644 576 644 c 4
  Spiro
    576 644 o
    448.692 607.847 o
    375.36 511.436 o
    352 374 o
    375.36 236.564 o
    448.692 140.153 o
    576 104 o
    703.308 140.153 o
    776.64 236.564 o
    800 374 o
    776.64 511.436 o
    703.308 607.847 o
    0 0 z
  EndSpiro
EndSplineSet
Layer: 2
SplineSet
576 1492 m 0
 736.81350708 1492 849 1380.08010864 849 1219 c 0
 849 1057.91989136 736.81350708 946 576 946 c 0
 415.18649292 946 303 1057.91989136 303 1219 c 0
 303 1380.08010864 415.18649292 1492 576 1492 c 0
  Spiro
    576 1492 o
    718.129 1457.09 o
    814.026 1361.25 o
    849 1219 o
    814.026 1076.75 o
    718.129 980.915 o
    576 946 o
    433.871 980.915 o
    337.974 1076.75 o
    303 1219 o
    337.974 1361.25 o
    433.871 1457.09 o
    0 0 z
  EndSpiro
576 1378 m 0
 736.81350708 1378 849 1266.08010864 849 1105 c 0
 849 943.919891357 736.81350708 832 576 832 c 0
 415.18649292 832 303 943.919891357 303 1105 c 0
 303 1266.08010864 415.18649292 1378 576 1378 c 0
  Spiro
    576 1378 o
    718.129 1343.09 o
    814.026 1247.25 o
    849 1105 o
    814.026 962.752 o
    718.129 866.915 o
    576 832 o
    433.871 866.915 o
    337.974 962.752 o
    303 1105 o
    337.974 1247.25 o
    433.871 1343.09 o
    0 0 z
  EndSpiro
576 620 m 4
 745.649680398 620 864 501.930930398 864 332 c 4
 864 162.069069602 745.649680398 44 576 44 c 4
 406.350319602 44 288 162.069069602 288 332 c 4
 288 501.930930398 406.350319602 620 576 620 c 4
  Spiro
    576 620 o
    725.939 583.167 o
    827.105 482.063 o
    864 332 o
    827.105 181.937 o
    725.939 80.8329 o
    576 44 o
    426.061 80.8329 o
    324.895 181.937 o
    288 332 o
    324.895 482.063 o
    426.061 583.167 o
    0 0 z
  EndSpiro
576 832 m 0
 745.649414062 832 864 713.930664062 864 544 c 0
 864 374.069335938 745.649414062 256 576 256 c 0
 406.350585938 256 288 374.069335938 288 544 c 0
 288 713.930664062 406.350585938 832 576 832 c 0
  Spiro
    576 832 o
    725.939 795.167 o
    827.105 694.063 o
    864 544 o
    827.105 393.937 o
    725.939 292.833 o
    576 256 o
    426.061 292.833 o
    324.895 393.937 o
    288 544 o
    324.895 694.063 o
    426.061 795.167 o
    0 0 z
  EndSpiro
EndSplineSet
Layer: 3
SplineSet
576 1364 m 0
 553.831802792 1364 531.627683605 1361.86541564 510 1357 c 0
 476.318733698 1349.42298146 444.167348932 1334.74286822 416.927495224 1313.53368908 c 0
 389.687641517 1292.32450994 367.524237056 1264.89514465 351.170123291 1234.49149565 c 0
 318.46189576 1173.68419764 308 1103.04603999 308 1034 c 0
 308 964.953960006 318.46189576 894.315802358 351.170123291 833.508504353 c 0
 367.524237056 803.104855351 389.687641517 775.675490058 416.927495224 754.466310921 c 0
 444.167348932 733.257131784 476.318733698 718.577018541 510 711 c 0
 531.627683605 706.134584365 553.831802792 704 576 704 c 0
 598.168197208 704 620.372316395 706.134584365 642 711 c 0
 675.681266302 718.577018541 707.832651068 733.257131784 735.072504776 754.466310921 c 0
 762.312358483 775.675490059 784.475762944 803.104855351 800.829876709 833.508504353 c 0
 833.53810424 894.315802358 844 964.953960006 844 1034 c 0
 844 1103.04603999 833.53810424 1173.68419764 800.829876709 1234.49149565 c 0
 784.475762944 1264.89514465 762.312358483 1292.32450994 735.072504776 1313.53368908 c 0
 707.832651068 1334.74286822 675.681266302 1349.42298146 642 1357 c 0
 620.372316395 1361.86541564 598.168197208 1364 576 1364 c 0
  Spiro
    576 1364 o
    510 1357 o
    308 1034 o
    510 711 o
    576 704 o
    642 711 o
    844 1034 o
    642 1357 o
    0 0 z
  EndSpiro
576 704 m 0
 553.875934641 704 531.720863017 702.204566307 510 698 c 0
 474.928969672 691.211205633 441.06317059 677.63836591 411.735969344 657.242774125 c 0
 382.408768098 636.847182339 357.814620754 609.900635488 339.187230459 579.419736092 c 0
 301.932449867 518.457937301 288 445.444101148 288 374 c 1
 288 302.555898852 301.932449867 229.542062699 339.187230459 168.580263908 c 0
 357.814620754 138.099364512 382.408768098 111.152817661 411.735969344 90.7572258754 c 0
 441.06317059 70.3616340899 474.928969672 56.7887943665 510 50 c 0
 531.720863017 45.7954336926 553.875934641 44 576 44 c 0
 598.124065359 44 620.279136983 45.7954336926 642 50 c 0
 677.071030328 56.7887943665 710.93682941 70.3616340899 740.264030656 90.7572258754 c 0
 769.591231902 111.152817661 794.185379246 138.099364512 812.812769541 168.580263908 c 0
 850.067550133 229.542062699 864 302.555898852 864 374 c 0
 864 445.444101148 850.067550133 518.457937301 812.812769541 579.419736092 c 0
 794.185379246 609.900635488 769.591231902 636.847182339 740.264030656 657.242774125 c 0
 710.93682941 677.63836591 677.071030328 691.211205634 642 698 c 0
 620.279136983 702.204566307 598.124065359 704 576 704 c 0
  Spiro
    576 704 o
    510 698 o
    288 374 o
    510 50 o
    576 44 o
    642 50 o
    864 374 o
    642 698 o
    0 0 z
  EndSpiro
EndSplineSet
Layer: 4
EndChar
StartChar: colon
Encoding: 58 58 80
Width: 1024
VWidth: 0
Flags: W
HStem: -16 288<403.554 620.446> 752 288<403.554 620.446>
VStem: 368 288<21.7898 234.21 789.79 1002.21>
LayerCount: 5
Back
Fore
SplineSet
512 1040 m 4
 596.825 1040 656 980.965625 656 896 c 4
 656 811.034375 596.825 752 512 752 c 4
 427.175 752 368 811.034375 368 896 c 4
 368 980.965625 427.175 1040 512 1040 c 4
512 272 m 0
 596.825 272 656 212.965625 656 128 c 0
 656 43.034375 596.825 -16 512 -16 c 0
 427.175 -16 368 43.034375 368 128 c 0
 368 212.965625 427.175 272 512 272 c 0
EndSplineSet
Layer: 2
Layer: 3
Layer: 4
EndChar
StartChar: semicolon
Encoding: 59 59 81
Width: 1024
VWidth: 0
Flags: W
HStem: 768 256<384 640>
VStem: 384 256<312.32 384 768 1024> 384 128<-256 -184.32>
LayerCount: 5
Back
Fore
SplineSet
384 384 m 5xc0
 640 384 l 5xc0
 512 -256 l 5
 384 -256 l 5xa0
 384 384 l 5xc0
384 1024 m 1
 640 1024 l 1
 640 768 l 1
 384 768 l 1
 384 1024 l 1
EndSplineSet
Layer: 2
Layer: 3
Layer: 4
EndChar
StartChar: C
Encoding: 67 67 31
Width: 1024
VWidth: 0
Flags: W
HStem: -16 120<446.67 926.39> 1304 120<446.67 927.818>
VStem: 112 128<342.784 1065.21>
LayerCount: 5
Back
Fore
SplineSet
1024 173 m 1
 1024 49 l 1
 907 19 777 -16 643 -16 c 0
 543 -16 436 7 347 64 c 0
 246 129 175 237 143 364 c 0
 114 478 112 594 112 704 c 0
 112 814 114 930 143 1044 c 0
 176 1171 246 1278 347 1344 c 0
 436 1402 543 1424 643 1424 c 0
 766 1424 885 1395 994 1367 c 1
 994 1243 l 1
 881 1272 755 1304 643 1304 c 0
 430 1304 312 1188 268 1016 c 0
 243 919 240 813 240 704 c 0
 240 595 243 489 268 392 c 0
 312 220 430 104 643 104 c 0
 765 104 903 142 1024 173 c 1
EndSplineSet
Layer: 2
SplineSet
768 1354 m 4
 838.846354572 1343.50490046 908.562607991 1326.54427717 978 1309 c 4
 1036.08310479 1294.32453395 1094.03673517 1279.14187225 1152 1264 c 5
 976 768 l 5
 1152 144 l 5
 1094.03673517 128.858127746 1036.08310479 113.675466053 978 99 c 4
 908.562607991 81.4557228309 838.846354572 64.4950995387 768 54 c 4
 726.614442498 47.86918991 684.83718974 44.0275101078 643 44 c 4
 642.863057097 43.999909953 642.726110136 43.9998649121 642.589159181 43.9998649121 c 4
 552.095323139 43.9998649121 459.857171744 63.6657890577 384 113 c 4
 338.215629814 142.776166507 299.188946716 182.644590338 269.426631448 228.437965788 c 4
 239.66431618 274.231341238 219.060751679 325.596743357 205.422300628 378.48172514 c 4
 178.145398527 484.251688705 176 594.769443008 176 704 c 4
 176 813.230556992 178.145398527 923.748311295 205.422300628 1029.51827486 c 4
 219.060751679 1082.40325664 239.66431618 1133.76865876 269.426631448 1179.56203421 c 4
 299.188946716 1225.35540966 338.215629814 1265.22383349 384 1295 c 4
 459.857171744 1344.33421094 552.095323139 1364.00013509 642.589159181 1364.00013509 c 4
 684.62230979 1363.98631424 726.467613412 1360.15256119 768 1354 c 4
  Spiro
    643 1364 o
    768 1354 o
    978 1309 o
    1152 1264 v
    976 768 v
    1152 144 v
    978 99 o
    768 54 o
    643 44 o
    384 113 o
    176 704 o
    384 1295 o
    0 0 z
  EndSpiro
EndSplineSet
Layer: 3
Layer: 4
EndChar
StartChar: F
Encoding: 70 70 34
Width: 1024
VWidth: 0
Flags: W
HStem: 0 21G<256 384> 640 120<384 896> 1288 120<384 1024>
VStem: 256 128<0 640 760 1288>
LayerCount: 5
Back
Fore
SplineSet
256 1408 m 1
 1024 1408 l 1
 1024 1288 l 1
 384 1288 l 1
 384 760 l 5
 896 760 l 5
 896 640 l 5
 384 640 l 5
 384 0 l 1
 256 0 l 1
 256 1408 l 1
EndSplineSet
Layer: 2
Layer: 3
Layer: 4
EndChar
StartChar: O
Encoding: 79 79 42
Width: 1024
VWidth: 0
InSpiro: 1
Flags: W
HStem: -16 120<416.212 735.788> 1304 120<416.212 735.788>
VStem: 113 128<316.074 1091.93> 911 128<316.074 1091.93>
LayerCount: 5
Back
Fore
SplineSet
576 1424 m 0
 648.124042983 1424 720.575145634 1407.33897822 784 1373 c 0
 842.856914091 1341.13415953 893.068844766 1294.14340929 931 1239 c 0
 969.534066227 1182.98009309 995.694303974 1119.00930622 1012 1053 c 0
 1021.5748369 1014.23880022 1027.86522703 974.711607401 1032 935 c 0
 1036.04713037 896.130138529 1038.03177213 857.067991116 1039 818 c 0
 1039.94153043 780.009250547 1040 742.002414706 1040 704 c 0
 1040 665.997585294 1039.94153043 627.990749453 1039 590 c 0
 1038.03177213 550.932008884 1036.04713037 511.869861471 1032 473 c 0
 1027.86522703 433.288392599 1021.5748369 393.761199777 1012 355 c 0
 995.694303974 288.990693779 969.534066227 225.019906915 931 169 c 0
 893.068844766 113.856590715 842.856914091 66.8658404664 784 35 c 0
 720.575145634 0.661021784042 648.124042983 -16 576 -16 c 0
 503.875957017 -16 431.424854366 0.661021784042 368 35 c 0
 309.143085909 66.8658404664 258.931155234 113.856590715 221 169 c 0
 182.465933773 225.019906915 156.305696026 288.990693779 140 355 c 0
 130.425163096 393.761199777 124.134772969 433.288392599 120 473 c 0
 115.952869626 511.869861471 113.968227868 550.932008884 113 590 c 0
 112.058469573 627.990749453 112 665.997585294 112 704 c 0
 112 742.002414706 112.058469573 780.009250547 113 818 c 0
 113.968227868 857.067991116 115.952869626 896.130138529 120 935 c 0
 124.134772969 974.711607401 130.425163096 1014.23880022 140 1053 c 0
 156.305696026 1119.00930622 182.465933773 1182.98009309 221 1239 c 0
 258.931155234 1294.14340929 309.143085909 1341.13415953 368 1373 c 0
 431.424854366 1407.33897822 503.875957017 1424 576 1424 c 0
  Spiro
    576 1424 o
    784 1373 o
    931 1239 o
    1012 1053 o
    1032 935 o
    1039 818 o
    1040 704 o
    1039 590 o
    1032 473 o
    1012 355 o
    931 169 o
    784 35 o
    576 -16 o
    368 35 o
    221 169 o
    140 355 o
    120 473 o
    113 590 o
    112 704 o
    113 818 o
    120 935 o
    140 1053 o
    221 1239 o
    368 1373 o
    0 0 z
  EndSpiro
576 1304 m 0
 524.169061029 1304 472.070301454 1291.59519802 427 1266 c 0
 384.776180137 1242.02130459 349.497141006 1206.6906662 323 1166 c 0
 295.299970182 1123.46210254 276.816306416 1075.3673908 265 1026 c 0
 256.817444344 991.814070099 251.672382663 956.959199445 248 922 c 0
 244.230187229 886.113315895 242.044591466 850.069022901 241 814 c 0
 239.938463153 777.345864788 240 740.669503522 240 704 c 0
 240 667.330496478 239.938463153 630.654135212 241 594 c 0
 242.044591466 557.930977099 244.230187229 521.886684105 248 486 c 0
 251.672382663 451.040800555 256.817444344 416.185929901 265 382 c 0
 276.816306416 332.632609197 295.299970182 284.537897457 323 242 c 0
 349.497141006 201.309333801 384.776180137 165.978695407 427 142 c 0
 472.070301454 116.404801983 524.169061029 104 576 104 c 0
 627.830938971 104 679.929698546 116.404801983 725 142 c 0
 767.223819863 165.978695407 802.502858994 201.309333801 829 242 c 0
 856.700029818 284.537897457 875.183693584 332.632609197 887 382 c 0
 895.182555656 416.185929901 900.327617337 451.040800555 904 486 c 0
 907.769812771 521.886684105 909.955408534 557.930977099 911 594 c 0
 912.061536847 630.654135212 912 667.330496478 912 704 c 0
 912 740.669503522 912.061536847 777.345864788 911 814 c 0
 909.955408534 850.069022901 907.769812771 886.113315895 904 922 c 0
 900.327617337 956.959199445 895.182555656 991.814070099 887 1026 c 0
 875.183693584 1075.3673908 856.700029818 1123.46210254 829 1166 c 0
 802.502858994 1206.6906662 767.223819863 1242.02130459 725 1266 c 0
 679.929698546 1291.59519802 627.830938971 1304 576 1304 c 0
  Spiro
    576 1304 o
    427 1266 o
    323 1166 o
    265 1026 o
    248 922 o
    241 814 o
    240 704 o
    241 594 o
    248 486 o
    265 382 o
    323 242 o
    427 142 o
    576 104 o
    725 142 o
    829 242 o
    887 382 o
    904 486 o
    911 594 o
    912 704 o
    911 814 o
    904 922 o
    887 1026 o
    829 1166 o
    725 1266 o
    0 0 z
  EndSpiro
EndSplineSet
Layer: 2
SplineSet
576 1492 m 4
 811.625 1492 976 1328.015625 976 1092 c 4
 976 865.425 811.625 708 576 708 c 4
 340.375 708 176 865.425 176 1092 c 4
 176 1328.015625 340.375 1492 576 1492 c 4
  Spiro
    576 1492 o
    784.248 1440.84 o
    924.757 1300.42 o
    976 1092 o
    924.757 891.915 o
    784.248 757.11 o
    576 708 o
    367.752 757.11 o
    227.243 891.915 o
    176 1092 o
    227.243 1300.42 o
    367.752 1440.84 o
    0 0 z
  EndSpiro
576 828 m 4
 811.625 828 976 670.575 976 444 c 4
 976 207.984375 811.625 44 576 44 c 4
 340.375 44 176 207.984375 176 444 c 4
 176 670.575 340.375 828 576 828 c 4
  Spiro
    576 828 o
    784.248 778.89 o
    924.757 644.085 o
    976 444 o
    924.757 235.578 o
    784.248 95.1567 o
    576 44 o
    367.752 95.1567 o
    227.243 235.578 o
    176 444 o
    227.243 644.085 o
    367.752 778.89 o
    0 0 z
  EndSpiro
EndSplineSet
Layer: 3
SplineSet
576 1364 m 0
 643.232974455 1364 710.624752961 1346.04787984 768 1311 c 0
 815.850534785 1281.77032553 856.230827797 1240.84198324 886.44733169 1193.60840999 c 0
 916.663835583 1146.37483675 936.888479806 1093.21313869 949.871199277 1038.6650265 c 0
 975.836638219 929.568802112 976 816.143614152 976 704 c 0
 976 591.856385848 975.836638219 478.431197888 949.871199277 369.3349735 c 0
 936.888479806 314.786861307 916.663835583 261.625163249 886.44733169 214.391590007 c 0
 856.230827797 167.158016764 815.850534786 126.229674468 768 97 c 0
 710.624752961 61.9521201594 643.232974455 44 576 44 c 0
 508.767025545 44 441.375247039 61.9521201594 384 97 c 0
 336.149465215 126.229674468 295.769172203 167.158016764 265.55266831 214.391590006 c 0
 235.336164417 261.625163249 215.111520194 314.786861307 202.128800723 369.3349735 c 0
 176.163361781 478.431197888 176 591.856385848 176 704 c 0
 176 816.143614152 176.163361781 929.568802112 202.128800723 1038.6650265 c 0
 215.111520194 1093.21313869 235.336164417 1146.37483675 265.55266831 1193.60840999 c 0
 295.769172203 1240.84198324 336.149465214 1281.77032553 384 1311 c 0
 441.375247039 1346.04787984 508.767025545 1364 576 1364 c 0
  Spiro
    576 1364 o
    768 1311 o
    976 704 o
    768 97 o
    576 44 o
    384 97 o
    176 704 o
    384 1311 o
    0 0 z
  EndSpiro
EndSplineSet
Layer: 4
EndChar
StartChar: Q
Encoding: 81 81 44
Width: 1024
VWidth: 0
Flags: W
HStem: -400 120<730.773 1021.59> -12 116<417.204 513 641 729.761> 1304 120<420.271 731.729>
VStem: 112 128<320.274 1084.8> 513 128<-183.596 -5.45044> 912 128<320.28 1084.8>
LayerCount: 5
Back
Fore
SplineSet
576 1424 m 0
 814 1424 964 1256 1012 1053 c 0
 1040 935 1040 816 1040 704 c 0
 1040 592 1040 473 1012 355 c 0
 969 171 842 16 641 -12 c 1
 643 -62 651 -129 684 -182 c 0
 721 -241 776 -280 872 -280 c 0
 920 -280 972 -272 1024 -263 c 1
 1024 -385 l 1
 973 -394 922 -400 872 -400 c 0
 724 -400 628 -333 573 -241 c 0
 525 -160 515 -74 513 -12 c 1
 312 15 184 171 140 355 c 0
 112 473 112 592 112 704 c 0
 112 816 112 935 140 1053 c 0
 188 1256 338 1424 576 1424 c 0
576 1304 m 0
 404 1304 301 1178 265 1026 c 0
 241 923 240 816 240 704 c 0
 240 592 241 485 265 382 c 0
 301 230 404 104 576 104 c 0
 748 104 851 230 887 382 c 0
 911 485 912 592 912 704 c 0
 912 816 911 923 887 1026 c 0
 851 1178 748 1304 576 1304 c 0
EndSplineSet
Layer: 2
Layer: 3
Layer: 4
EndChar
StartChar: R
Encoding: 82 82 45
Width: 1024
VWidth: 0
Flags: W
HStem: 0 21G<128 256 795.461 937> 640 120<256 561> 1288 120<256 676.624>
VStem: 128 128<0 640 760 1288> 784 128<868.856 1180.75>
LayerCount: 5
Back
Fore
SplineSet
449 760 m 6
 525 760 565 762 601 770 c 4
 709 794 784 890 784 1024 c 4
 784 1158 709 1254 601 1278 c 4
 565 1286 525 1288 449 1288 c 6
 256 1288 l 5
 256 760 l 5
 449 760 l 6
256 0 m 5
 128 0 l 5
 128 1408 l 5
 449 1408 l 6
 526 1408 578 1408 633 1395 c 4
 792 1357 912 1220 912 1024 c 4
 912 851 818 723 686 670 c 5
 937 0 l 5
 803 0 l 5
 561 642 l 5
 528 640 493 640 449 640 c 6
 256 640 l 5
 256 0 l 5
EndSplineSet
Layer: 2
SplineSet
439 760 m 6
 524 760 575 761 620 772 c 4
 755 805 848 925 848 1088 c 4
 848 1251 755 1371 620 1404 c 4
 575 1415 524 1416 439 1416 c 6
 256 1416 l 5
 256 760 l 5
 439 760 l 6
534.4140625 641.071289062 m 5
 505.526367188 640 474.323242188 640 439 640 c 6
 256 640 l 5
 256 0 l 5
 128 0 l 5
 128 1536 l 5
 439 1536 l 6
 526 1536 588 1536 652 1520 c 4
 838 1475 976 1312 976 1088 c 4
 976 868.202148438 843.12890625 707.13671875 662.416992188 658.657226562 c 5
 912.923828125 0 l 5
 769.30078125 0 l 5
 534.4140625 641.071289062 l 5
EndSplineSet
Layer: 3
Layer: 4
EndChar
StartChar: S
Encoding: 83 83 46
Width: 1024
VWidth: 0
Flags: W
HStem: -16 120<259.035 775.362> 1304 120<402.92 843.308>
VStem: 152 128<889.025 1186.02> 912 128<229.087 515.486>
LayerCount: 5
Back
Fore
SplineSet
570 1304 m 0
 379 1304 280 1178 280 1036 c 0
 280 928 338 847 412 807 c 0
 521 749 661 770 792 721 c 0
 923 672 1040 547 1040 375 c 0
 1040 192 897 -16 582 -16 c 0
 465 -16 319 11 192 39 c 1
 192 163 l 1
 319 133 468 104 582 104 c 0
 814 104 912 240 912 375 c 0
 912 493 835 575 744 609 c 0
 616 657 487 629 348 703 c 0
 240 761 152 880 152 1036 c 0
 152 1222 288 1424 570 1424 c 0
 671 1424 811 1393 930 1361 c 1
 930 1236 l 1
 810 1270 669 1304 570 1304 c 0
EndSplineSet
Layer: 2
SplineSet
576 1364 m 4
 788.0625 1364 936 1234.61328125 936 1034 c 4
 936 842.827148438 788.0625 704 576 704 c 4
 363.9375 704 216 842.827148438 216 1034 c 4
 216 1234.61328125 363.9375 1364 576 1364 c 4
  Spiro
    576 1364 o
    763.423 1323.1 o
    889.881 1208.57 o
    936 1034 o
    889.881 863.625 o
    763.423 746.99 o
    576 704 o
    388.577 746.99 o
    262.119 863.625 o
    216 1034 o
    262.119 1208.57 o
    388.577 1323.1 o
    0 0 z
  EndSpiro
576 704 m 4
 811.625 704 976 562.8125 976 374 c 4
 976 175.747070312 811.625 44 576 44 c 4
 340.375 44 176 175.747070312 176 374 c 4
 176 562.8125 340.375 704 576 704 c 4
  Spiro
    576 704 o
    784.248 660.486 o
    924.757 543.326 o
    976 374 o
    924.757 200.479 o
    784.248 85.4188 o
    576 44 o
    367.752 85.4188 o
    227.243 200.479 o
    176 374 o
    227.243 543.326 o
    367.752 660.486 o
    0 0 z
  EndSpiro
EndSplineSet
Layer: 3
SplineSet
79 128 m 0
 144.937293333 111.314584254 211.289256081 96.2592004484 278 83 c 0
 327.455314491 73.1704299853 377.096925986 64.2202342125 427 57 c 0
 476.379220837 49.8555595677 526.108353076 44.4171891802 576 44 c 0
 577.94434705 43.9837415559 579.889238634 43.9755192265 581.834520801 43.9755192265 c 0
 638.022896611 43.9755192265 694.537140116 50.8354955705 747.667241846 69.0429610748 c 0
 802.636746084 87.88078219 853.669434506 119.225983138 893 162 c 0
 945.716298149 219.331690954 975.925889087 296.50286806 976.000554053 374.579368562 c 0
 976.000554053 438.003563074 956.084104364 501.431969773 918.970350955 552.863430049 c 0
 881.743588313 604.451496148 827.583341456 642.706820736 768 665 c 0
 705.513526136 688.379389766 638.236986955 694.802966978 572.031499459 703.048493467 c 0
 505.826011962 711.294019955 438.755329727 723.393568528 380 755 c 0
 330.230633982 781.772584951 287.75299194 822.157935526 259.400105435 871.044282553 c 0
 230.531977888 920.819013638 215.985328117 977.666399 215.985328117 1036.12032969 c 0
 215.985328117 1122.70456949 249.848762541 1209.7323259 312 1270 c 0
 346.427948532 1303.38457072 388.816377042 1328.24085802 434.284278106 1343.48825698 c 0
 477.853707721 1358.09901447 524.018555187 1364.03357611 569.99169427 1364.03357611 c 0
 571.994903694 1364.03357611 573.997749131 1364.02230847 576 1364 c 0
 618.59754119 1363.52539123 661.023359854 1358.26205556 703 1351 c 0
 744.299681825 1343.85505979 785.250117737 1334.80617076 826 1325 c 0
 907.301538861 1305.43536009 987.879007681 1282.94455983 1068 1259 c 1024
  Spiro
    79 128 {
    278 83 o
    427 57 o
    576 44 o
    893 162 o
    976 374 o
    768 665 o
    380 755 o
    216 1033 o
    312 1270 o
    576 1364 o
    703 1351 o
    826 1325 o
    1068 1259 o
    0 0 z
  EndSpiro
EndSplineSet
Layer: 4
EndChar
StartChar: V
Encoding: 86 86 49
Width: 1024
VWidth: 0
Flags: W
HStem: 0 119<555.335 596.665> 1388 20G<103 266 886 1049>
VStem: 103 135<1085.69 1408> 914 135<1085.69 1408>
LayerCount: 5
Back
Fore
SplineSet
103 1408 m 1
 238 1408 l 1
 294 900 402 468 571 119 c 1
 581 119 l 1
 750 468 858 900 914 1408 c 1
 1049 1408 l 1
 996 912 884 437 641 0 c 1
 511 0 l 1
 268 437 156 912 103 1408 c 1
EndSplineSet
Layer: 2
Layer: 3
Layer: 4
EndChar
StartChar: backslash
Encoding: 92 92 26
Width: 1024
VWidth: 0
Flags: W
LayerCount: 5
Back
Fore
SplineSet
1041 -128 m 5
 901 -128 l 5
 112 1537 l 5
 252 1537 l 5
 1041 -128 l 5
EndSplineSet
Layer: 2
Layer: 3
Layer: 4
EndChar
StartChar: underscore
Encoding: 95 95 90
Width: 1024
VWidth: 0
Flags: W
HStem: -124 120<128 1024>
LayerCount: 5
Back
Fore
SplineSet
128 -4 m 1
 1024 -4 l 1
 1024 -124 l 1
 128 -124 l 1
 128 -4 l 1
EndSplineSet
Layer: 2
Layer: 3
Layer: 4
EndChar
StartChar: d
Encoding: 100 100 4
Width: 1024
VWidth: 0
Flags: W
HStem: -16 120<445.978 668.384> 0 21G<768 896> 920 120<445.978 668.384> 1388 20G<768 896>
VStem: 224 128<213.326 810.674> 768 128<0 125 212.637 811.363 899 1408>
LayerCount: 5
Back
Fore
SplineSet
540 1040 m 4xbc
 623 1040 699 991 758 899 c 5
 768 899 l 5
 768 1408 l 5
 896 1408 l 5
 896 0 l 5
 768 0 l 5x7c
 768 125 l 5
 758 125 l 5
 699 33 623 -16 540 -16 c 4
 409 -16 299 71 252 221 c 4
 224 311 224 400 224 512 c 4
 224 624 224 713 252 803 c 4
 299 953 409 1040 540 1040 c 4xbc
560 920 m 4
 464 920 404 847 378 768 c 4
 353 692 352 604 352 512 c 4
 352 420 353 332 378 256 c 4
 404 177 464 104 560 104 c 4xbc
 656 104 716 177 742 256 c 4
 767 332 768 420 768 512 c 4
 768 604 767 692 742 768 c 4
 716 847 656 920 560 920 c 4
EndSplineSet
Layer: 2
Layer: 3
Layer: 4
EndChar
StartChar: g
Encoding: 103 103 7
Width: 1024
VWidth: 0
Flags: W
HStem: -400 120<260.158 677.227> -16 120<445.978 668.384> 920 120<445.978 668.384> 1004 20G<768 896>
VStem: 224 128<213.326 810.674> 768 128<-181.979 125 212.637 811.363 899 1024>
LayerCount: 5
Back
Fore
SplineSet
540 1040 m 4xec
 623 1040 699 991 758 899 c 5
 768 899 l 5
 768 1024 l 5
 896 1024 l 5xdc
 896 32 l 6
 896 -28 896 -139 835 -241 c 4
 780 -333 684 -400 536 -400 c 4
 443 -400 345 -378 256 -361 c 5
 256 -238 l 5
 344 -255 448 -280 536 -280 c 4
 632 -280 687 -241 724 -182 c 4
 768 -111 768 -15 768 32 c 6
 768 125 l 5
 758 125 l 5
 699 33 623 -16 540 -16 c 4
 409 -16 299 71 252 221 c 4
 224 311 224 400 224 512 c 4
 224 624 224 713 252 803 c 4
 299 953 409 1040 540 1040 c 4xec
560 920 m 4xec
 464 920 404 847 378 768 c 4
 353 692 352 604 352 512 c 4
 352 420 353 332 378 256 c 4
 404 177 464 104 560 104 c 4
 656 104 716 177 742 256 c 4
 767 332 768 420 768 512 c 4
 768 604 767 692 742 768 c 4
 716 847 656 920 560 920 c 4xec
EndSplineSet
Layer: 2
Layer: 3
SplineSet
560 256 m 0
 540.531058528 255.947221234 521.068001614 253.93112987 502 250 c 0
 429.609085841 235.075620889 363.438945309 190.787450634 323.3553728 128.686816502 c 0
 295.049798907 84.8335874058 280.159157176 32.615220877 280.159157176 -19.5380184051 c 0
 280.159157176 -41.2390721402 282.737332713 -62.9288497008 288 -84 c 1
 209 -374 l 1
 242.96542309 -380.84150246 276.961124633 -387.533850806 311 -394 c 0
 348.904671387 -401.200509937 386.85129422 -408.230450311 425 -414 c 0
 461.90225773 -419.581038865 499.006770216 -423.98450874 536.377578814 -424.000158115 c 0
 559.041833588 -424.000158115 581.745827027 -422.289510396 604 -418 c 0
 640.10095022 -411.041511745 674.92790157 -396.960217035 705.038701814 -375.864272538 c 0
 735.149502059 -354.768328042 760.351981447 -326.936162582 779.427369943 -295.506419991 c 0
 817.886880116 -232.13824769 832.002686517 -156.82331051 832.002686517 -82.2233925653 c 0
 832.002686517 -11.0094668425 819.032413309 61.5201974215 784.179541127 123.59687694 c 0
 766.608167036 154.893366725 743.26464813 183.100056667 714.856993763 205.036980648 c 0
 686.449339397 226.973904628 653.075441808 242.38837453 618 250 c 0
 598.968519222 254.12996947 579.474370882 256.052793484 560 256 c 0
  Spiro
    560 256 o
    502 250 o
    288 -84 v
    209 -374 v
    311 -394 o
    425 -414 o
    536 -424 o
    604 -418 o
    832 -84 o
    618 250 o
    0 0 z
  EndSpiro
EndSplineSet
Layer: 4
EndChar
StartChar: i
Encoding: 105 105 9
Width: 1024
VWidth: 0
Flags: W
HStem: 0 120<256 512 640 896> 904 120<256 512> 1200 224<453.032 634.968>
VStem: 432 224<1221.03 1402.97> 512 128<120 904>
LayerCount: 5
Back
Fore
SplineSet
256 0 m 5xe8
 256 120 l 5
 512 120 l 5
 512 904 l 5
 256 904 l 5
 256 1024 l 5
 640 1024 l 5
 640 120 l 5
 896 120 l 5
 896 0 l 5
 256 0 l 5xe8
544 1424 m 0
 610 1424 656 1378 656 1312 c 0
 656 1246 610 1200 544 1200 c 0
 478 1200 432 1246 432 1312 c 0xf0
 432 1378 478 1424 544 1424 c 0
EndSplineSet
Layer: 2
Layer: 3
Layer: 4
EndChar
StartChar: o
Encoding: 111 111 15
Width: 1024
VWidth: 0
InSpiro: 1
Flags: W
HStem: -16 120<444.694 707.306> 920 120<444.694 707.306>
VStem: 224 128<208.574 815.426> 800 128<208.574 815.426>
LayerCount: 5
Back
Fore
SplineSet
576 1040 m 0
 625 1040 674 1031 718 1011 c 0
 757 993 793 967 822 935 c 0
 850 904 872 868 888 829 c 0
 901 798 909 765 915 732 c 0
 921 697 924 662 926 627 c 0
 928 589 928 550 928 512 c 0
 928 474 928 435 926 397 c 0
 924 362 921 327 915 292 c 0
 909 259 901 226 888 195 c 0
 872 156 850 120 822 89 c 0
 793 57 757 31 718 13 c 0
 674 -7 625 -16 576 -16 c 0
 527 -16 478 -7 434 13 c 0
 395 31 359 57 330 89 c 0
 302 120 280 156 264 195 c 0
 251 226 243 259 237 292 c 0
 231 327 228 362 226 397 c 0
 224 435 224 474 224 512 c 0
 224 550 224 589 226 627 c 0
 228 662 231 697 237 732 c 0
 243 765 251 798 264 829 c 0
 280 868 302 904 330 935 c 0
 359 967 395 993 434 1011 c 0
 478 1031 527 1040 576 1040 c 0
576 920 m 0
 547 920 518 915 491 904 c 0
 467 894 445 878 427 858 c 0
 409 838 394 814 384 789 c 0
 373 763 366 735 362 707 c 0
 357 676 355 644 354 612 c 0
 353 579 352 545 352 512 c 0
 352 479 353 445 354 412 c 0
 355 380 357 348 362 317 c 0
 366 289 373 261 384 235 c 0
 394 210 409 186 427 166 c 0
 445 146 467 130 491 120 c 0
 518 109 547 104 576 104 c 0
 605 104 634 109 661 120 c 0
 685 130 707 146 725 166 c 0
 743 186 758 210 768 235 c 0
 779 261 786 289 790 317 c 0
 795 348 797 380 798 412 c 0
 799 445 800 479 800 512 c 0
 800 545 799 579 798 612 c 0
 797 644 795 676 790 707 c 0
 786 735 779 763 768 789 c 0
 758 814 743 838 725 858 c 0
 707 878 685 894 661 904 c 0
 634 915 605 920 576 920 c 0
EndSplineSet
Layer: 2
SplineSet
576 620 m 4
 745.649680398 620 864 501.930930398 864 332 c 4
 864 162.069069602 745.649680398 44 576 44 c 4
 406.350319602 44 288 162.069069602 288 332 c 4
 288 501.930930398 406.350319602 620 576 620 c 4
  Spiro
    576 620 o
    725.939 583.167 o
    827.105 482.063 o
    864 332 o
    827.105 181.937 o
    725.939 80.8329 o
    576 44 o
    426.061 80.8329 o
    324.895 181.937 o
    288 332 o
    324.895 482.063 o
    426.061 583.167 o
    0 0 z
  EndSpiro
576 980 m 4
 745.649680398 980 864 861.930930398 864 692 c 4
 864 522.069069602 745.649680398 404 576 404 c 4
 406.350319602 404 288 522.069069602 288 692 c 4
 288 861.930930398 406.350319602 980 576 980 c 4
  Spiro
    576 980 o
    725.939 943.167 o
    827.105 842.063 o
    864 692 o
    827.105 541.937 o
    725.939 440.833 o
    576 404 o
    426.061 440.833 o
    324.895 541.937 o
    288 692 o
    324.895 842.063 o
    426.061 943.167 o
    0 0 z
  EndSpiro
EndSplineSet
Layer: 3
SplineSet
576 980 m 0
 567.324724123 980 558.648756819 979.677803086 550 979 c 0
 500.14705605 975.093024703 451.039999149 957.918629526 411.358993265 927.488410196 c 0
 371.677987381 897.058190866 342.166566355 854.502829358 323.553962577 808.089992158 c 0
 304.941358799 761.677154957 296.557710164 711.747219037 292.442706941 661.91101508 c 0
 288.327703719 612.074811123 288 562.005804427 288 512 c 1
 288 461.994195573 288.327703721 411.925188876 292.442706944 362.088984919 c 0
 296.557710167 312.252780961 304.941358804 262.322845041 323.553962582 215.91000784 c 0
 342.16656636 169.497170641 371.677987385 126.941809133 411.358993268 96.5115898039 c 0
 451.039999151 66.0813704744 500.147056051 48.9069752969 550 45 c 0
 558.648756819 44.3221969143 567.324724123 44 576 44 c 0
 584.675275877 44 593.351243181 44.3221969143 602 45 c 0
 651.85294395 48.9069752967 700.960000851 66.0813704743 740.641006735 96.5115898041 c 0
 780.322012619 126.941809134 809.833433645 169.497170642 828.446037423 215.910007842 c 0
 847.058641201 262.322845043 855.442289836 312.252780963 859.557293059 362.08898492 c 0
 863.672296281 411.925188877 864 461.994195573 864 512 c 1
 864 562.005804427 863.672296279 612.074811124 859.557293056 661.911015081 c 0
 855.442289833 711.747219039 847.058641196 761.677154959 828.446037418 808.08999216 c 0
 809.83343364 854.502829359 780.322012615 897.058190867 740.641006732 927.488410196 c 0
 700.960000849 957.918629526 651.852943949 975.093024703 602 979 c 0
 593.351243181 979.677803086 584.675275877 980 576 980 c 0
  Spiro
    576 980 o
    550 979 o
    288 512 o
    550 45 o
    576 44 o
    602 45 o
    864 512 o
    602 979 o
    0 0 z
  EndSpiro
EndSplineSet
Layer: 4
EndChar
StartChar: q
Encoding: 113 113 17
Width: 1024
VWidth: 0
Flags: W
HStem: -16 120<445.978 668.384> 920 120<445.978 668.384> 1004 20G<768 896>
VStem: 224 128<213.326 810.674> 768 128<-384 125 212.637 811.363 899 1024>
LayerCount: 5
Back
Fore
SplineSet
560 104 m 0xd8
 656 104 716 177 742 256 c 0
 767 332 768 420 768 512 c 0
 768 604 767 692 742 768 c 0
 716 847 656 920 560 920 c 0
 464 920 404 847 378 768 c 0
 353 692 352 604 352 512 c 0
 352 420 353 332 378 256 c 0
 404 177 464 104 560 104 c 0xd8
540 -16 m 0
 409 -16 299 71 252 221 c 0
 224 311 224 400 224 512 c 0
 224 624 224 713 252 803 c 0
 299 953 409 1040 540 1040 c 0xd8
 623 1040 699 991 758 899 c 1
 768 899 l 1
 768 1024 l 1
 896 1024 l 1xb8
 896 -384 l 5
 768 -384 l 5
 768 125 l 1
 758 125 l 1
 699 33 623 -16 540 -16 c 0
EndSplineSet
Layer: 2
Layer: 3
Layer: 4
EndChar
StartChar: v
Encoding: 118 118 1
Width: 1024
VWidth: 0
Flags: W
HStem: 0 119<554.548 597.452> 1004 20G<201 356 796 951>
VStem: 201 135<735.685 1024> 816 135<735.685 1024>
LayerCount: 5
Back
Fore
SplineSet
201 1024 m 5
 336 1024 l 5
 376 667 452 364 571 119 c 5
 581 119 l 5
 700 364 776 667 816 1024 c 5
 951 1024 l 5
 912 663 830 318 656 0 c 5
 496 0 l 5
 322 318 240 663 201 1024 c 5
EndSplineSet
Layer: 2
SplineSet
64 1536 m 5
 640 20 l 5
 1216 1536 l 1029
EndSplineSet
Layer: 3
Layer: 4
EndChar
StartChar: w
Encoding: 119 119 22
Width: 1024
VWidth: 0
Flags: W
HStem: 0 21G<257 417.417 734.583 895> 1004 20G<106 237 915 1046>
VStem: 106 131<559.059 1024> 915 131<559.059 1024>
LayerCount: 5
Back
Fore
SplineSet
514 767 m 1
 638 767 l 1
 802 140 l 1
 812 140 l 1
 883 413 915 717 915 1024 c 1
 1046 1024 l 1
 1046 681 995 340 895 2 c 1
 740 0 l 1
 581 587 l 1
 571 587 l 1
 412 0 l 1
 257 2 l 1
 157 340 106 681 106 1024 c 1
 237 1024 l 1
 237 717 269 413 340 140 c 1
 350 140 l 1
 514 767 l 1
EndSplineSet
Layer: 2
SplineSet
1074 1124 m 5
 832 14 l 5
 576 1009 l 5
 320 14 l 5
 78 1124 l 1029
EndSplineSet
Layer: 3
Layer: 4
Substitution2: "'ss06' Style Set 6 lookup 7-1" w.alt
EndChar
StartChar: y
Encoding: 121 121 24
Width: 1024
VWidth: 0
Flags: W
HStem: -400 114<256 436.156> 1004 20G<201 357.5 791.5 951>
VStem: 201 135<738.402 1024> 816 135<808.551 1024>
LayerCount: 5
Back
Fore
SplineSet
497 0 m 1
 317 328 241 663 201 1024 c 1
 336 1024 l 1
 379 651 458 332 592 78 c 1
 602 78 l 1
 701 406 767 720 816 1024 c 1
 951 1024 l 1
 866 580 772 142 616 -273 c 0
 596 -327 547 -371 474 -385 c 0
 415 -396 341 -400 256 -400 c 1
 256 -286 l 1
 339 -286 399 -285 438 -278 c 0
 470 -272 490 -247 505 -214 c 0
 539 -139 560 -79 585 0 c 1
 497 0 l 1
EndSplineSet
Layer: 2
Layer: 3
SplineSet
596 -54 m 5
 466 -358 l 6
 457.563898426 -377.727499064 448.453103785 -397.460990346 434.85359019 -414.056027528 c 4
 421.254076596 -430.65106471 403.53896582 -443.783312939 383.822117037 -452.244276427 c 4
 364.105268254 -460.705239913 342.71200732 -464.662751865 321.32882854 -466.42391464 c 4
 299.94564976 -468.185077414 278.455582701 -468.000000003 257 -468 c 6
 256 -468 l 1029
  Spiro
    596 -54 {
    466 -358 ]
    257 -468 [
    256 -468 o
    0 0 z
  EndSpiro
EndSplineSet
Layer: 4
EndChar
StartChar: braceright
Encoding: 125 125 93
Width: 1024
VWidth: 0
Flags: W
HStem: -144 120<256 434.746> 643 120<716.461 896> 1430 120<256 434.746>
VStem: 512 128<44.0498 574.95 831.05 1361.95>
CounterMasks: 1 e0
LayerCount: 5
Back
Fore
SplineSet
671 698 m 5
 671 708 l 5
 612 732 561 769 537 821 c 4
 512 875 512 922 512 990 c 6
 512 1203 l 6
 512 1261 512 1294 498 1323 c 4
 463 1396 354 1430 256 1430 c 5
 256 1550 l 5
 408 1550 560 1490 615 1372 c 4
 640 1318 640 1271 640 1203 c 6
 640 990 l 6
 640 932 640 899 654 870 c 4
 689 797 798 763 896 763 c 5
 896 643 l 5
 798 643 689 609 654 536 c 4
 640 507 640 474 640 416 c 6
 640 203 l 6
 640 135 640 88 615 34 c 4
 560 -84 408 -144 256 -144 c 5
 256 -24 l 5
 354 -24 463 10 498 83 c 4
 512 112 512 145 512 203 c 6
 512 416 l 6
 512 484 512 531 537 585 c 4
 561 637 612 674 671 698 c 5
EndSplineSet
Layer: 2
Layer: 3
Layer: 4
EndChar
StartChar: exclamdown
Encoding: 161 161 100
Width: 1024
VWidth: 0
Flags: W
HStem: 768 256<448 704>
VStem: 448 256<768 1024> 502 148<-384 512>
LayerCount: 5
Back
Fore
SplineSet
448 768 m 5xc0
 448 1024 l 5
 704 1024 l 5
 704 768 l 5
 448 768 l 5xc0
640 512 m 5
 650 -384 l 5
 502 -384 l 5xa0
 512 512 l 5
 640 512 l 5
EndSplineSet
Layer: 2
Layer: 3
Layer: 4
EndChar
StartChar: currency
Encoding: 164 164 541
Width: 1024
VWidth: 0
Flags: W
HStem: 244 120<440.577 711.426> 788 120<440.409 711.593>
VStem: 240 128<436.124 715.878> 784 128<436.122 715.876>
LayerCount: 5
Back
SplineSet
576 848 m 4
 736.22479248 848 848 736.49041748 848 576 c 4
 848 415.50958252 736.22479248 304 576 304 c 4
 415.77520752 304 304 415.50958252 304 576 c 4
 304 736.49041748 415.77520752 848 576 848 c 4
EndSplineSet
Fore
SplineSet
576 788 m 4
 452.818359375 788 368 708.139648438 368 576 c 4
 368 443.866210938 452.803710938 364 576 364 c 4
 699.181640625 364 784 443.859375 784 576 c 4
 784 708.133789062 699.197265625 788 576 788 c 4
297.209525107 768.374578803 m 5
 152 912 l 5
 246 994 l 5
 384.62553539 853.811018722 l 5
 437.617557272 888.275230542 502.776230864 908 576 908 c 4
 649.22039016 908 714.379457416 888.274868098 767.372841165 853.809376967 c 5
 906 994 l 5
 1000 912 l 5
 854.789137992 768.373256486 l 5
 891.399434142 714.750499038 912 648.767546981 912 576 c 4
 912 503.233138465 891.400650824 437.2492052 854.790474893 383.625421197 c 5
 1000 240 l 5
 906 158 l 5
 767.37446461 298.188981278 l 5
 714.382442728 263.724769458 649.223769136 244 576 244 c 4
 502.779367862 244 437.620301213 263.725066965 384.626990538 298.190452837 c 5
 246 158 l 5
 152 240 l 5
 297.210702409 383.626585656 l 5
 260.600461293 437.249371466 240 503.232381613 240 576 c 4
 240 648.766861535 260.599349176 714.7507948 297.209525107 768.374578803 c 5
EndSplineSet
Layer: 2
SplineSet
576 788 m 4
 452.818359375 788 368 708.139648438 368 576 c 4
 368 443.866210938 452.803710938 364 576 364 c 4
 699.181640625 364 784 443.859375 784 576 c 4
 784 708.133789062 699.197265625 788 576 788 c 4
576 908 m 4
 773.251953125 908 912 764.84765625 912 576 c 4
 912 387.159179688 773.267578125 244 576 244 c 4
 378.747070312 244 240 387.15234375 240 576 c 4
 240 764.840820312 378.732421875 908 576 908 c 4
EndSplineSet
Layer: 3
Layer: 4
EndChar
StartChar: brokenbar
Encoding: 166 166 314
Width: 1024
VWidth: 0
Flags: W
HStem: 1024 21G<512 640>
VStem: 512 128<-128 384 1024 1536>
LayerCount: 5
Back
Fore
SplineSet
640 1536 m 5
 640 1024 l 5
 512 1024 l 5
 512 1536 l 5
 640 1536 l 5
640 384 m 5
 640 -128 l 5
 512 -128 l 5
 512 384 l 5
 640 384 l 5
EndSplineSet
Layer: 2
Layer: 3
Layer: 4
EndChar
StartChar: macron
Encoding: 175 175 318
Width: 1024
VWidth: 0
Flags: W
HStem: 1156 120<256 896>
VStem: 256 640<1156 1276>
LayerCount: 5
Back
Fore
SplineSet
256 1276 m 1
 896 1276 l 1
 896 1156 l 1
 256 1156 l 1
 256 1276 l 1
EndSplineSet
Layer: 2
Layer: 3
Layer: 4
EndChar
StartChar: uni00B2
Encoding: 178 178 520
Width: 1024
VWidth: 0
Flags: W
HStem: 768 120<388 768> 1432 120<286.399 625.312>
VStem: 250 138<888 960.64> 652 128<1215.71 1403.21>
LayerCount: 5
Back
Fore
SplineSet
256 1505 m 1
 332 1528 415 1552 509 1552 c 0
 683 1552 780 1441 780 1317 c 0
 780 1167 661 1089 562 1039 c 0
 486 1001 413 967 388 898 c 1
 388 888 l 1
 768 888 l 1
 768 768 l 1
 250 768 l 1
 250 828 l 2
 250 991 372 1085 490 1141 c 0
 564 1176 652 1221 652 1317 c 0
 652 1355 630 1432 509 1432 c 0
 423 1432 329 1401 256 1378 c 1
 256 1505 l 1
EndSplineSet
Layer: 2
Layer: 3
Layer: 4
EndChar
StartChar: onehalf
Encoding: 189 189 510
Width: 1024
VWidth: 0
Flags: W
HStem: -128 120<644 1024> 536 120<542.399 881.312>
VStem: 384 128<768 1378> 506 138<-8 64.5314> 908 128<319.699 507.208>
LayerCount: 5
Back
SplineSet
640 1492 m 0
 760.168303987 1492 844 1420.66641645 844 1318 c 4
 844 1215.33355713 760.168303987 1144 640 1144 c 4
 519.831665039 1144 436 1215.33355713 436 1318 c 4
 436 1420.66641645 519.831665039 1492 640 1492 c 0
EndSplineSet
Fore
SplineSet
512 609 m 1xe8
 588 632 671 656 765 656 c 0
 939 656 1036 545 1036 421 c 0
 1036 271.39084841 917.165598879 192.598933907 818 143.057617188 c 0
 742.211207973 105.194924963 669.256239387 70.6391468574 644 2 c 1
 644 -8 l 1
 1024 -8 l 1
 1024 -128 l 1
 506 -128 l 1
 506 -68 l 2xd8
 506 95.1979350058 627.703194101 188.803625842 746 244.740234375 c 0
 819.628701576 279.555543424 908 325.123082138 908 421 c 0
 908 459 886 536 765 536 c 0
 679 536 585 505 512 482 c 1
 512 609 l 1xe8
404 1536 m 1
 512 1536 l 1
 512 768 l 1
 384 768 l 1
 384 1378 l 1xe8
 374 1378 l 1
 128 1246 l 1
 128 1380 l 1
 404 1536 l 1
EndSplineSet
Layer: 2
SplineSet
320 1421 m 0
 375.989987866 1439.87146298 432.560983093 1457.15188847 490 1471 c 0
 538.174341841 1482.61446861 587.275760666 1492.00003711 636.82936611 1492.00003711 c 0
 665.83878467 1491.99372883 694.94290441 1488.55037039 722.46106664 1479.46793243 c 0
 749.918257465 1470.40561824 775.630121075 1455.52049948 796 1435 c 0
 826.728542268 1404.04424233 844.004743873 1360.8080437 844.004743873 1316.70908966 c 0
 844.004743873 1285.12984839 835.496509752 1253.72208366 820.571533319 1225.88680459 c 0
 805.443200625 1197.67226339 783.831462586 1173.20705943 759 1153 c 0
 698.766234317 1103.98366523 621.472218731 1080.74354761 558 1036 c 0
 524.230971444 1012.19515802 494.473008141 982.143411005 473.879496164 946.325467797 c 0
 453.285984186 910.50752459 442.035085612 869.316056929 442 828 c 1
 896 828 l 1025
  Spiro
    320 1421 {
    490 1471 o
    637 1492 o
    796 1435 o
    844 1318 o
    759 1153 o
    558 1036 o
    442 828 v
    896 828 v
    0 0 z
  EndSpiro
EndSplineSet
Layer: 3
SplineSet
18 302 m 29
 1124 1234 l 1053
EndSplineSet
Layer: 4
EndChar
StartChar: questiondown
Encoding: 191 191 101
Width: 1024
VWidth: 0
Flags: W
HStem: -400 120<445.923 846.932> 768 256<448 704>
VStem: 244 128<-208.744 85.0012> 448 256<768 1024> 512 128<374.095 512>
LayerCount: 5
Back
Fore
SplineSet
640 512 m 1xe8
 640 228 372 178 372 -68 c 0
 372 -204 453 -280 588 -280 c 0
 672 -280 795 -248 896 -223 c 1
 896 -347 l 1
 792 -373 677 -400 588 -400 c 0
 383 -400 244 -274 244 -68 c 0
 244 218 511 297 512 512 c 1
 640 512 l 1xe8
704 768 m 1xf0
 448 768 l 1
 448 1024 l 1
 704 1024 l 1
 704 768 l 1xf0
EndSplineSet
Layer: 2
Layer: 3
Layer: 4
EndChar
StartChar: Adieresis
Encoding: 196 196 103
Width: 1024
VWidth: 0
Flags: W
HStem: 0 21G<103 244.5 907.5 1049> 388 120<330 821> 1043 109<541.386 610.589> 1328 224<261.032 442.968 709.032 890.968>
VStem: 103 135<0 263.728> 240 224<1349.03 1530.97> 688 224<1349.03 1530.97> 914 135<0 263.728>
LayerCount: 5
Back
Fore
SplineSet
352 1552 m 0
 418 1552 464 1506 464 1440 c 0
 464 1374 418 1328 352 1328 c 0
 286 1328 240 1374 240 1440 c 0
 240 1506 286 1552 352 1552 c 0
800 1552 m 0
 866 1552 912 1506 912 1440 c 0
 912 1374 866 1328 800 1328 c 0
 734 1328 688 1374 688 1440 c 0
 688 1506 734 1552 800 1552 c 0
103 0 m 1
 156 406 267 794 511 1152 c 1
 641 1152 l 1
 885 794 996 406 1049 0 c 1
 914 0 l 1
 901 136 884 265 851 388 c 1
 301 388 l 1
 268 265 251 136 238 0 c 1
 103 0 l 1
821 508 m 1
 767 708 689 887 581 1043 c 1
 571 1043 l 1
 463 887 384 708 330 508 c 1
 821 508 l 1
EndSplineSet
Layer: 2
Layer: 3
Layer: 4
EndChar
StartChar: AE
Encoding: 198 198 105
Width: 1024
VWidth: 0
Flags: W
HStem: 0 120<768 1024> 388 120<263 640> 644 120<768 1024> 1288 120<399.143 640 768 1024>
VStem: 103 135<0 367.797> 640 384<0 120 644 764> 640 128<120 388 508 644 764 1288>
LayerCount: 5
Back
Fore
SplineSet
640 388 m 1xfa
 242 388 l 1
 238 278 238 155 238 0 c 1
 103 0 l 1
 103 496 187 971 357 1408 c 1
 1024 1408 l 1
 1024 1288 l 1xfc
 768 1288 l 1
 768 764 l 1xfa
 1024 764 l 1
 1024 644 l 1xfc
 768 644 l 1
 768 120 l 1xfa
 1024 120 l 1
 1024 0 l 1
 640 0 l 1xfc
 640 388 l 1xfa
640 508 m 1xfa
 640 1288 l 1
 412 1288 l 1
 342 1060 295 800 263 508 c 1
 640 508 l 1xfa
EndSplineSet
Layer: 2
Layer: 3
Layer: 4
EndChar
StartChar: Yacute
Encoding: 221 221 128
Width: 1024
VWidth: 0
Flags: W
HStem: 0 21G<512 640>
VStem: 113 125<1026.19 1152> 512 128<0 549.96> 914 125<1026.19 1152>
CounterMasks: 1 70
LayerCount: 5
Back
Fore
SplineSet
113 1152 m 5
 238 1152 l 5
 303 939 398 758 561 612 c 5
 591 612 l 5
 754 758 849 939 914 1152 c 5
 1039 1152 l 5
 978 923 868 714 640 512 c 5
 640 0 l 5
 512 0 l 5
 512 512 l 5
 284 714 174 923 113 1152 c 5
488 1280 m 5
 626 1280 l 5
 792 1536 l 5
 654 1536 l 5
 488 1280 l 5
EndSplineSet
Layer: 2
Layer: 3
Layer: 4
EndChar
StartChar: ccedilla
Encoding: 231 231 138
Width: 1024
VWidth: 0
Flags: W
HStem: -400 120<386.225 611.489> -16 120<452.037 635.959> 920 120<450.263 890.041>
VStem: 224 128<209.809 814.191> 640 128<-233.261 -14>
LayerCount: 5
Back
Fore
SplineSet
768 -105 m 6
 768 -165 768 -235 716 -305 c 4
 674 -362 602 -400 512 -400 c 4
 477 -400 431 -393 384 -383 c 5
 384 -260 l 5
 432 -271 478 -280 512 -280 c 4
 559 -280 591 -263 612 -235 c 4
 640 -198 640 -155 640 -105 c 6
 640 -14 l 5
 621 -15 603 -16 586 -16 c 4
 417 -16 311 78 264 193 c 4
 226 286 224 391 224 512 c 4
 224 633 226 738 264 831 c 4
 311 946 417 1040 586 1040 c 4
 669 1040 769 1025 896 999 c 5
 896 876 l 5
 768 903 662 920 586 920 c 4
 485 920 420 872 384 789 c 4
 352 716 352 614 352 512 c 4
 352 410 352 308 384 235 c 4
 420 152 485 104 586 104 c 4
 662 104 768 121 896 148 c 5
 896 25 l 5
 847 15 802 6 761 0 c 5
 768 0 l 5
 768 -105 l 6
EndSplineSet
Layer: 2
Layer: 3
Layer: 4
EndChar
StartChar: edieresis
Encoding: 235 235 142
Width: 1024
VWidth: 0
Flags: W
HStem: -16 120<450.263 890.041> 512 120<355 797> 920 120<446.155 705.845> 1200 224<261.032 442.968 709.032 890.968>
VStem: 224 128<210.579 512 632 813.92> 240 224<1221.03 1402.97> 688 224<1221.03 1402.97>
LayerCount: 5
Back
Fore
SplineSet
352 1424 m 0xfa
 418 1424 464 1378 464 1312 c 0xf6
 464 1246 418 1200 352 1200 c 0xfa
 286 1200 240 1246 240 1312 c 0xf6
 240 1378 286 1424 352 1424 c 0xfa
800 1424 m 0
 866 1424 912 1378 912 1312 c 0
 912 1246 866 1200 800 1200 c 0
 734 1200 688 1246 688 1312 c 0
 688 1378 734 1424 800 1424 c 0
797 632 m 1
 794 690 786 744 768 789 c 0
 736 868 672 920 576 920 c 0
 480 920 416 868 384 789 c 0
 366 744 358 690 355 632 c 1
 797 632 l 1
352 512 m 1xfa
 352 410 352 308 384 235 c 0
 420 152 485 104 586 104 c 0
 662 104 768 121 896 148 c 1
 896 25 l 1
 769 -1 669 -16 586 -16 c 0
 417 -16 311 78 264 193 c 0
 226 286 224 391 224 512 c 0
 224 633 226 734 264 829 c 0
 310 945 416 1040 576 1040 c 0
 736 1040 842 945 888 829 c 0
 926 734 928 633 928 512 c 1
 352 512 l 1xfa
EndSplineSet
Layer: 2
Layer: 3
Layer: 4
EndChar
StartChar: igrave
Encoding: 236 236 143
Width: 1024
VWidth: 0
Flags: W
HStem: 0 120<256 512 640 896> 904 120<256 512> 1388 20G<360 510.969>
VStem: 512 128<120 904>
LayerCount: 5
Back
Fore
SplineSet
256 0 m 5
 256 120 l 5
 512 120 l 5
 512 904 l 5
 256 904 l 5
 256 1024 l 5
 640 1024 l 5
 640 120 l 5
 896 120 l 5
 896 0 l 5
 256 0 l 5
664 1152 m 1
 526 1152 l 1
 360 1408 l 1
 498 1408 l 1
 664 1152 l 1
EndSplineSet
Layer: 2
Layer: 3
Layer: 4
EndChar
StartChar: Amacron
Encoding: 256 256 167
Width: 1024
VWidth: 0
Flags: W
HStem: 0 21G<103 244.5 907.5 1049> 388 120<330 821> 1043 109<541.386 610.589> 1416 120<256 896>
VStem: 103 135<0 263.728> 914 135<0 263.728>
LayerCount: 5
Back
Fore
SplineSet
821 508 m 1
 767 708 689 887 581 1043 c 5
 571 1043 l 5
 463 887 384 708 330 508 c 1
 821 508 l 1
103 0 m 1
 156 406 267 794 511 1152 c 1
 641 1152 l 1
 885 794 996 406 1049 0 c 1
 914 0 l 1
 901 136 884 265 851 388 c 1
 301 388 l 1
 268 265 251 136 238 0 c 1
 103 0 l 1
256 1536 m 5
 896 1536 l 5
 896 1416 l 5
 256 1416 l 5
 256 1536 l 5
EndSplineSet
Layer: 2
Layer: 3
Layer: 4
EndChar
StartChar: cdotaccent
Encoding: 267 267 176
Width: 1024
VWidth: 0
Flags: W
HStem: -16 120<450.263 890.041> 920 120<450.263 890.041> 1200 224<485.032 666.968>
VStem: 224 128<209.809 814.191> 464 224<1221.03 1402.97>
LayerCount: 5
Back
Fore
SplineSet
224 512 m 0
 224 633 226 738 264 831 c 0
 311 946 417 1040 586 1040 c 0
 669 1040 769 1025 896 999 c 1
 896 876 l 1
 768 903 662 920 586 920 c 0
 485 920 420 872 384 789 c 0
 352 716 352 614 352 512 c 1
 352 410 352 308 384 235 c 0
 420 152 485 104 586 104 c 0
 662 104 768 121 896 148 c 1
 896 25 l 1
 769 -1 669 -16 586 -16 c 0
 417 -16 311 78 264 193 c 0
 226 286 224 391 224 512 c 0
576 1424 m 4
 642 1424 688 1378 688 1312 c 4
 688 1246 642 1200 576 1200 c 4
 510 1200 464 1246 464 1312 c 4
 464 1378 510 1424 576 1424 c 4
EndSplineSet
Layer: 2
Layer: 3
Layer: 4
EndChar
StartChar: dcroat
Encoding: 273 273 182
Width: 1024
VWidth: 0
Flags: W
HStem: -16 120<444.396 669.458> 0 21G<768 896> 792 120<444.396 669.458> 1156 120<384 768 896 1024> 1388 20G<768 896>
VStem: 224 128<206.421 689.579> 768 128<0 125 205.719 690.281 771 1156 1276 1408>
LayerCount: 5
Back
Fore
SplineSet
540 912 m 0xbe
 623 912 699 863 758 771 c 1
 768 771 l 1
 768 1156 l 1
 384 1156 l 1
 384 1276 l 1
 768 1276 l 1
 768 1408 l 1
 896 1408 l 1
 896 1276 l 1
 1024 1276 l 1
 1024 1156 l 1
 896 1156 l 1
 896 0 l 1
 768 0 l 1x7e
 768 125 l 1
 758 125 l 1
 699 33 623 -16 540 -16 c 0
 409 -16 294 71 247 221 c 0
 224 293 224 361 224 448 c 0
 224 535 224 603 247 675 c 0
 294 825 409 912 540 912 c 0xbe
560 792 m 0
 464 792 399 719 373 640 c 0
 354 581 352 517 352 448 c 0
 352 379 354 315 373 256 c 0
 399 177 464 104 560 104 c 0xbe
 656 104 721 177 747 256 c 0
 766 315 768 379 768 448 c 0
 768 517 766 581 747 640 c 0
 721 719 656 792 560 792 c 0
EndSplineSet
Layer: 2
Layer: 3
Layer: 4
EndChar
StartChar: eogonek
Encoding: 281 281 164
Width: 1024
VWidth: 0
Flags: W
HStem: -358 120<662.084 894.146> -16 120<449.093 591> 25 123<721.5 896> 512 120<355 797> 920 120<447.84 704.16>
VStem: 224 128<210.579 512 632 809.36> 512 128<-212.512 -40.7094> 797 131<632 814.755>
LayerCount: 5
Back
Fore
SplineSet
797 632 m 1x9f
 789 790 733 920 576 920 c 0
 419 920 363 790 355 632 c 1
 797 632 l 1x9f
896 25 m 1xbf
 809 6.51351351351 640 -6.62162162162 640 -126 c 0
 640 -207.951219512 710 -238 767 -238 c 0
 813 -238 857 -228 896 -218 c 1
 896 -341 l 1
 856 -349 813 -358 767 -358 c 0
 653 -358 512 -271.461538462 512 -133 c 0
 512 -76.7792207792 557 -26.6363636364 591 -16 c 1
 421 -16 310 81 264 193 c 0
 226 286 224 391 224 512 c 0
 224 633 226 734 264 829 c 0
 310 945 416 1040 576 1040 c 0
 736 1040 842 945 888 829 c 0
 926 734 928 633 928 512 c 1
 352 512 l 1
 352 410 352 308 384 235 c 0
 420 152 485 104 586 104 c 0xdf
 662 104 768 121 896 148 c 1
 896 107 896 66 896 25 c 1xbf
EndSplineSet
Layer: 2
Layer: 3
Layer: 4
EndChar
StartChar: gcircumflex
Encoding: 285 285 192
Width: 1024
VWidth: 0
Flags: W
HStem: -400 120<260.158 677.227> -16 120<445.978 668.384> 920 120<445.978 668.384> 1004 20G<768 896> 1388 20G<473.797 678.203>
VStem: 224 128<213.326 810.674> 768 128<-181.979 125 212.637 811.363 899 1024>
LayerCount: 5
Back
Fore
SplineSet
497 1408 m 1xce
 655 1408 l 1
 952 1152 l 1
 794 1152 l 1
 576 1316 l 1
 358 1152 l 1
 200 1152 l 1
 497 1408 l 1xce
560 920 m 0xee
 464 920 404 847 378 768 c 0
 353 692 352 604 352 512 c 0
 352 420 353 332 378 256 c 0
 404 177 464 104 560 104 c 0
 656 104 716 177 742 256 c 0
 767 332 768 420 768 512 c 0
 768 604 767 692 742 768 c 0
 716 847 656 920 560 920 c 0xee
540 1040 m 0
 623 1040 699 991 758 899 c 1
 768 899 l 1
 768 1024 l 1
 896 1024 l 1xde
 896 32 l 2
 896 -28 896 -139 835 -241 c 0
 780 -333 684 -400 536 -400 c 0
 443 -400 345 -378 256 -361 c 1
 256 -238 l 1
 344 -255 448 -280 536 -280 c 0
 632 -280 687 -241 724 -182 c 0
 768 -111 768 -15 768 32 c 2
 768 125 l 1
 758 125 l 1
 699 33 623 -16 540 -16 c 0
 409 -16 299 71 252 221 c 0
 224 311 224 400 224 512 c 0
 224 624 224 713 252 803 c 0
 299 953 409 1040 540 1040 c 0
EndSplineSet
Layer: 2
Layer: 3
Layer: 4
EndChar
StartChar: Gbreve
Encoding: 286 286 193
Width: 1024
VWidth: 0
Flags: W
HStem: -16 120<443.402 894.008> 520 120<640 896> 1048 120<443.402 928.567> 1264 120<418.746 733.254>
VStem: 112 128<328.306 823.694> 236 128<1435.69 1536> 788 128<1435.69 1536> 896 128<129.251 520>
LayerCount: 5
Back
Fore
SplineSet
896 140 m 1xf9
 896 520 l 1
 640 520 l 1
 640 640 l 1
 1024 640 l 1
 1024 49 l 1
 907 19 787 -16 643 -16 c 0
 300 -16 112 213 112 576 c 0
 112 939 300 1168 643 1168 c 0
 786 1168 907 1133 1024 1103 c 1
 1024 979 l 1
 903 1010 784 1048 643 1048 c 0
 370 1048 240 870 240 576 c 0
 240 282 370 104 643 104 c 0
 735 104 817 120 896 140 c 1xf9
788 1536 m 5xf6
 916 1536 l 5
 916 1368 764 1264 576 1264 c 4
 388 1264 236 1368 236 1536 c 5
 364 1536 l 5
 364 1450 433 1384 576 1384 c 4
 719 1384 788 1450 788 1536 c 5xf6
EndSplineSet
Layer: 2
Layer: 3
Layer: 4
EndChar
StartChar: uni0122
Encoding: 290 290 271
Width: 1024
VWidth: 0
Flags: W
HStem: -528 120<512 611.008> -16 120<447.38 892.627> 648 120<640 896> 1304 120<447.536 927.818>
VStem: 112 128<344.264 1063.74> 640 128<-361.261 -128> 896 128<130.103 648>
LayerCount: 5
Back
Fore
SplineSet
643 1424 m 4
 766 1424 885 1395 994 1367 c 5
 994 1243 l 5
 881 1272 755 1304 643 1304 c 4
 430 1304 312 1188 268 1016 c 4
 243 919 240 813 240 704 c 4
 240 595 243 489 268 392 c 4
 312 220 430 104 643 104 c 4
 724 104 811 120 896 140 c 5
 896 648 l 5
 640 648 l 5
 640 768 l 5
 1024 768 l 5
 1024 49 l 5
 907 19 777 -16 643 -16 c 4
 366 -16 199 142 143 364 c 4
 114 478 112 594 112 704 c 4
 112 814 114 930 143 1044 c 4
 201 1266 366 1424 643 1424 c 4
768 -233 m 2
 768 -293 768 -363 716 -433 c 0
 674 -490 602 -528 512 -528 c 0
 512 -408 l 0
 559 -408 591 -391 612 -363 c 0
 640 -326 640 -283 640 -233 c 2
 640 -128 l 1
 768 -128 l 1
 768 -233 l 2
EndSplineSet
Layer: 2
Layer: 3
Layer: 4
EndChar
StartChar: itilde
Encoding: 297 297 225
Width: 1024
VWidth: 0
Flags: W
HStem: 0 120<256 512 640 896> 904 120<256 512> 1156 120<623.658 756.749> 1284 120<395.276 528.342>
VStem: 253 128<1177 1277.1> 512 128<120 904> 771 128<1283.78 1383>
CounterMasks: 1 0e
LayerCount: 5
Back
Fore
SplineSet
448 1284 m 0
 397 1284 384 1225 381 1171 c 1
 253 1177 l 1
 257 1295 319 1404 448 1404 c 0
 594 1404 627 1276 704 1276 c 0
 755 1276 768 1335 771 1389 c 1
 899 1383 l 1
 896 1267 833 1156 704 1156 c 0
 558 1156 525 1284 448 1284 c 0
256 0 m 1
 256 120 l 1
 512 120 l 1
 512 904 l 1
 256 904 l 1
 256 1024 l 1
 640 1024 l 1
 640 120 l 1
 896 120 l 1
 896 0 l 1
 256 0 l 1
EndSplineSet
Layer: 2
Layer: 3
Layer: 4
EndChar
StartChar: lacute
Encoding: 314 314 279
Width: 1024
VWidth: 0
Flags: W
HStem: -16 120<668.725 894.027>
VStem: 512 128<149.787 1152>
LayerCount: 5
Back
Fore
SplineSet
896 -2 m 1
 853 -9 808 -16 758 -16 c 0
 686 -16 627 9 585 52 c 0
 512 128 512 218 512 279 c 2
 512 1152 l 5
 640 1152 l 5
 640 279 l 2
 640 232 640 186 668 148 c 0
 688 121 719 104 768 104 c 0
 805 104 855 113 896 121 c 1
 896 -2 l 1
488 1280 m 5
 626 1280 l 5
 792 1536 l 5
 654 1536 l 5
 488 1280 l 5
EndSplineSet
Layer: 2
Layer: 3
Layer: 4
EndChar
StartChar: uni013C
Encoding: 316 316 281
Width: 1024
VWidth: 0
Flags: W
HStem: -528 120<512 611.008> -16 120<668.725 894.027>
VStem: 512 128<149.787 1536> 640 128<-361.261 -128>
LayerCount: 5
Back
Fore
SplineSet
896 -2 m 1xd0
 853 -9 808 -16 758 -16 c 0
 686 -16 627 9 585 52 c 0
 512 128 512 218 512 279 c 2
 512 1536 l 1
 640 1536 l 1
 640 279 l 2xe0
 640 232 640 186 668 148 c 0
 688 121 719 104 768 104 c 0
 805 104 855 113 896 121 c 1
 896 -2 l 1xd0
768 -233 m 2xd0
 768 -293 768 -363 716 -433 c 0
 674 -490 602 -528 512 -528 c 1
 512 -408 l 1xe0
 559 -408 591 -391 612 -363 c 0
 640 -326 640 -283 640 -233 c 2
 640 -128 l 1
 768 -128 l 1
 768 -233 l 2xd0
EndSplineSet
Layer: 2
Layer: 3
Layer: 4
EndChar
StartChar: Lslash
Encoding: 321 321 284
Width: 1024
VWidth: 0
Flags: W
HStem: 0 120<512 1024> 1388 20G<384 512>
VStem: 384 128<120 523 765 1408>
LayerCount: 5
Back
Fore
SplineSet
128 491 m 5
 384 674 l 5
 384 1408 l 1
 512 1408 l 1
 512 765 l 5
 768 948 l 5
 768 797 l 5
 512 614 l 5
 512 120 l 1
 1024 120 l 1
 1024 0 l 1
 384 0 l 1
 384 523 l 5
 128 340 l 5
 128 491 l 5
EndSplineSet
Layer: 2
Layer: 3
Layer: 4
EndChar
StartChar: lslash
Encoding: 322 322 285
Width: 1024
VWidth: 0
Flags: W
HStem: 0 21G<383.962 512> 1388 20G<383 511>
VStem: 383 128<0 522 764 1408>
LayerCount: 5
Back
Fore
SplineSet
384 0 m 1
 383 522 l 1
 128 340 l 1
 128 491 l 1
 383 673 l 1
 383 1408 l 1
 511 1408 l 1
 511 764 l 1
 512 765 l 1
 768 948 l 1
 768 797 l 1
 512 614 l 1
 511 614 l 1
 512 0 l 1
 384 0 l 1
EndSplineSet
Layer: 2
Layer: 3
Layer: 4
EndChar
StartChar: Nacute
Encoding: 323 323 238
Width: 1024
VWidth: 0
Flags: W
HStem: 0 21G<128 256 882.624 1024>
VStem: 128 128<0 942> 896 128<210 1152>
LayerCount: 5
Back
Fore
SplineSet
256 0 m 1
 128 0 l 1
 128 1152 l 1
 255 1152 l 1
 886 210 l 1
 896 210 l 1
 896 1152 l 1
 1024 1152 l 1
 1024 0 l 1
 896 0 l 1
 266 942 l 5
 256 942 l 5
 256 0 l 1
488 1280 m 5
 626 1280 l 5
 792 1536 l 5
 654 1536 l 5
 488 1280 l 5
EndSplineSet
Layer: 2
Layer: 3
Layer: 4
EndChar
StartChar: ohungarumlaut
Encoding: 337 337 252
Width: 1024
VWidth: 0
Flags: W
HStem: -16 120<446.155 705.845> 920 120<446.155 705.845>
VStem: 224 128<209.24 814.76> 800 128<209.24 814.76>
LayerCount: 5
Back
Fore
SplineSet
360 1152 m 1
 498 1152 l 1
 664 1408 l 1
 526 1408 l 1
 360 1152 l 1
616 1152 m 1
 754 1152 l 1
 920 1408 l 1
 782 1408 l 1
 616 1152 l 1
576 920 m 0
 480 920 416 868 384 789 c 0
 354 714 352 614 352 512 c 0
 352 410 354 310 384 235 c 0
 416 156 480 104 576 104 c 0
 672 104 736 156 768 235 c 0
 798 310 800 410 800 512 c 0
 800 614 798 714 768 789 c 0
 736 868 672 920 576 920 c 0
576 1040 m 0
 736 1040 842 945 888 829 c 0
 926 734 928 633 928 512 c 0
 928 391 926 290 888 195 c 0
 842 79 736 -16 576 -16 c 0
 416 -16 310 79 264 195 c 0
 226 290 224 391 224 512 c 0
 224 633 226 734 264 829 c 0
 310 945 416 1040 576 1040 c 0
EndSplineSet
Layer: 2
Layer: 3
Layer: 4
EndChar
StartChar: rcaron
Encoding: 345 345 260
Width: 1024
VWidth: 0
Flags: W
HStem: 0 21G<256 384> 920 120<504.949 892.248> 1004 20G<256 384> 1388 20G<200 384.585 767.415 952>
VStem: 256 128<0 782.495 876 1024>
LayerCount: 5
Back
Fore
SplineSet
256 1024 m 1xb8
 384 1024 l 1xb8
 384 876 l 1
 394 876 l 1
 460 982 537 1040 665 1040 c 0
 737 1040 818 1034 896 1026 c 1
 896 903 l 1
 814 913 730 920 665 920 c 0xd8
 589 920 535 903 491 866 c 0
 385 778 384 612 384 535 c 2
 384 0 l 1
 256 0 l 1
 256 1024 l 1xb8
497 1152 m 1
 200 1408 l 1
 358 1408 l 1
 576 1244 l 1
 794 1408 l 1
 952 1408 l 1
 655 1152 l 1
 497 1152 l 1
EndSplineSet
Layer: 2
Layer: 3
Layer: 4
EndChar
StartChar: Uring
Encoding: 366 366 203
Width: 1024
VWidth: 0
Flags: W
HStem: -16 120<404.736 747.179> 1068 100<491.338 660.662> 1384 100<491.338 660.662>
VStem: 128 128<252.382 1152> 368 108<1181.57 1370.43> 676 108<1181.57 1370.43> 896 128<252.382 1152>
LayerCount: 5
Back
Fore
SplineSet
128 1152 m 5
 256 1152 l 5
 256 512 l 2
 256 437 256 378 268 330 c 0
 301 196 416 104 576 104 c 0
 736 104 851 196 884 330 c 0
 896 378 896 437 896 512 c 2
 896 1152 l 5
 1024 1152 l 5
 1024 512 l 2
 1024 426 1024 371 1008 303 c 0
 964 118 797 -16 576 -16 c 0
 355 -16 187 118 144 303 c 0
 128 371 128 426 128 512 c 2
 128 1152 l 5
576 1384 m 4
 518 1384 476 1350 476 1276 c 4
 476 1202 518 1168 576 1168 c 4
 634 1168 676 1202 676 1276 c 4
 676 1350 634 1384 576 1384 c 4
576 1484 m 4
 699 1484 784 1390 784 1276 c 4
 784 1162 699 1068 576 1068 c 4
 453 1068 368 1162 368 1276 c 4
 368 1390 453 1484 576 1484 c 4
EndSplineSet
Layer: 2
Layer: 3
Layer: 4
EndChar
StartChar: uring
Encoding: 367 367 204
Width: 1024
VWidth: 0
Flags: W
HStem: -16 120<447.689 680.727> 0 21G<768 896> 940 100<491.338 660.662> 1004 20G<256 384 768 896> 1256 100<491.338 660.662>
VStem: 256 128<169.924 1024> 368 108<1053.57 1242.43> 676 108<1053.57 1242.43> 768 128<0 112 166.016 1024>
LayerCount: 5
Back
Fore
SplineSet
576 1356 m 0x2b
 699 1356 784 1262 784 1148 c 0
 784 1034 699 940 576 940 c 0
 453 940 368 1034 368 1148 c 0
 368 1262 453 1356 576 1356 c 0x2b
576 1256 m 0
 518 1256 476 1222 476 1148 c 0
 476 1074 518 1040 576 1040 c 0
 634 1040 676 1074 676 1148 c 0
 676 1222 634 1256 576 1256 c 0
556 -16 m 0x8c80
 456 -16 375 29 325 91 c 0
 256 177 256 273 256 367 c 2
 256 1024 l 1
 384 1024 l 1
 384 367 l 2
 384 280 384 218 429 166 c 0
 461 129 512 104 576 104 c 0x9c80
 640 104 691 129 723 166 c 0
 768 218 768 280 768 367 c 2
 768 1024 l 1
 896 1024 l 1
 896 0 l 1
 768 0 l 1x5c80
 768 112 l 1
 758 112 l 1
 709 35 632 -16 556 -16 c 0x8c80
EndSplineSet
Layer: 2
Layer: 3
Layer: 4
EndChar
StartChar: Uogonek
Encoding: 370 370 207
Width: 1024
VWidth: 0
Flags: W
HStem: -400 120<523.912 766.146> 1388 20G<128 256 896 1024>
VStem: 128 128<251.024 1408> 384 128<-262.716 -108.573> 896 128<249.171 1408>
LayerCount: 5
Back
Fore
SplineSet
639 -280 m 4
 685 -280 729 -270 768 -260 c 5
 768 -383 l 5
 728 -391 685 -400 639 -400 c 4
 525 -400 384 -325 384 -205 c 4
 384 -66 466 -62 500 -10 c 1
 317 17 182 140 144 303 c 0
 128 371 128 426 128 512 c 2
 128 1408 l 1
 256 1408 l 1
 256 512 l 2
 256 437 256 378 268 330 c 0
 301 196 416 104 576 104 c 0
 736 104 851 196 884 330 c 0
 896 378 896 437 896 512 c 2
 896 1408 l 1
 1024 1408 l 1
 1024 512 l 2
 1024 426 1024 371 1008 303 c 0
 968 134 826 8 633 -13 c 1
 606 -92 512 -108 512 -198 c 4
 512 -258 582 -280 639 -280 c 4
EndSplineSet
Layer: 2
Layer: 3
Layer: 4
EndChar
StartChar: ycircumflex
Encoding: 375 375 212
Width: 1024
VWidth: 0
Flags: W
HStem: -400 114<256 436.156> 1004 20G<201 357.5 791.5 951> 1398 20G<473.797 678.203>
VStem: 201 135<738.402 1024> 816 135<808.551 1024>
LayerCount: 5
Back
Fore
SplineSet
497 1418 m 1
 655 1418 l 1
 952 1162 l 1
 794 1162 l 1
 576 1326 l 1
 358 1162 l 1
 200 1162 l 1
 497 1418 l 1
497 0 m 1
 317 328 241 663 201 1024 c 1
 336 1024 l 1
 379 651 458 332 592 78 c 1
 602 78 l 1
 701 406 767 720 816 1024 c 1
 951 1024 l 1
 866 580 772 142 616 -273 c 0
 596 -327 547 -371 474 -385 c 0
 415 -396 341 -400 256 -400 c 1
 256 -286 l 1
 339 -286 399 -285 438 -278 c 0
 470 -272 490 -247 505 -214 c 0
 539 -139 560 -79 585 0 c 1
 497 0 l 1
EndSplineSet
Layer: 2
Layer: 3
Layer: 4
EndChar
StartChar: uni01EA
Encoding: 490 490 436
Width: 1152
VWidth: 0
Flags: W
HStem: -403 120<485.912 728.146> -16 120<408.626 576> 1176 120<408.149 743.851>
VStem: 112 128<298.492 981.508> 346 128<-265.716 -128.883> 912 128<295.225 981.508>
LayerCount: 5
Back
Fore
SplineSet
601 -283 m 0
 647 -283 691 -273 730 -263 c 1
 730 -386 l 1
 690 -394 647 -403 601 -403 c 0
 487 -403 346 -328 346 -208 c 0
 346 -102 576 -36 576 -16 c 1
 344 -16 193 127 142 318 c 0
 113 427 112 536 112 640 c 0
 112 744 113 853 142 962 c 0
 193 1153 344 1296 576 1296 c 0
 808 1296 959 1153 1010 962 c 0
 1039 853 1040 744 1040 640 c 0
 1040 536 1039 427 1010 318 c 0
 975 187 893 78 770 23 c 0
 632 -39 474 -94 474 -201 c 0
 474 -261 544 -283 601 -283 c 0
240 640 m 0
 240 537 242 438 266 348 c 0
 304 206 406 104 576 104 c 0
 746 104 848 206 886 348 c 0
 910 438 912 537 912 640 c 0
 912 743 910 842 886 932 c 0
 848 1074 746 1176 576 1176 c 0
 406 1176 304 1074 266 932 c 0
 242 842 240 743 240 640 c 0
EndSplineSet
Layer: 2
Layer: 3
Layer: 4
EndChar
StartChar: uni01EB
Encoding: 491 491 437
Width: 1024
VWidth: 0
Flags: W
HStem: -403 120<460.912 703.146> -16 120<447.935 576> 920 120<446.155 705.845>
VStem: 224 128<209.24 814.76> 321 128<-265.716 -118.078> 800 128<209.24 814.76>
LayerCount: 5
Back
Fore
SplineSet
576 920 m 0xf4
 480 920 416 868 384 789 c 0
 354 714 352 614 352 512 c 0
 352 410 354 310 384 235 c 0
 416 156 480 104 576 104 c 0
 672 104 736 156 768 235 c 0
 798 310 800 410 800 512 c 0
 800 614 798 714 768 789 c 0
 736 868 672 920 576 920 c 0xf4
576 -283 m 0
 622 -283 666 -273 705 -263 c 1
 705 -386 l 1
 665 -394 622 -403 576 -403 c 0
 462 -403 321 -328 321 -208 c 0xec
 321 -70 515 -75 576 -16 c 1
 416 -16 310 79 264 195 c 0
 226 290 224 391 224 512 c 0xf4
 224 633 226 734 264 829 c 0
 310 945 416 1040 576 1040 c 0
 736 1040 842 945 888 829 c 0
 926 734 928 633 928 512 c 0
 928 391 926 290 888 195 c 0
 858 120 803 54 725 16 c 0
 620 -35 449 -97 449 -201 c 0xec
 449 -261 519 -283 576 -283 c 0
EndSplineSet
Layer: 2
Layer: 3
Layer: 4
EndChar
StartChar: uni0216
Encoding: 534 534 460
Width: 1024
VWidth: 0
Flags: W
HStem: -16 120<404.736 747.179> 1432 120<418.746 733.254>
VStem: 128 128<252.382 1152> 236 128<1280 1380.31> 788 128<1280 1380.31> 896 128<252.382 1152>
LayerCount: 5
Back
Fore
SplineSet
788 1280 m 1xd8
 788 1366 719 1432 576 1432 c 0
 433 1432 364 1366 364 1280 c 1
 236 1280 l 1
 236 1448 388 1552 576 1552 c 0
 764 1552 916 1448 916 1280 c 1
 788 1280 l 1xd8
128 1152 m 1xe4
 256 1152 l 1
 256 512 l 2
 256 437 256 378 268 330 c 0
 301 196 416 104 576 104 c 0
 736 104 851 196 884 330 c 0
 896 378 896 437 896 512 c 2
 896 1152 l 1
 1024 1152 l 1
 1024 512 l 2
 1024 426 1024 371 1008 303 c 0
 964 118 797 -16 576 -16 c 0
 355 -16 187 118 144 303 c 0
 128 371 128 426 128 512 c 2
 128 1152 l 1xe4
EndSplineSet
Layer: 2
Layer: 3
Layer: 4
EndChar
StartChar: uni0218
Encoding: 536 536 462
Width: 1024
VWidth: 0
Flags: W
HStem: -400 120<512 611.1> -16 120<259.035 775.362> 1176 120<381.816 843.308>
VStem: 152 128<854.147 1088.04> 640 128<-243.403 -128> 912 128<229.087 515.486>
LayerCount: 5
Back
Fore
SplineSet
716 -315 m 4
 675 -367 602 -400 512 -400 c 5
 512 -280 l 5
 559 -280 593.035029578 -268.028892655 612 -245 c 4
 640 -211 640 -173 640 -128 c 5
 683 -128 725 -128 768 -128 c 5
 768 -184 768.023720579 -249.018695851 716 -315 c 4
570 1176 m 0
 379 1176 280 1080 280 972 c 0
 280 885 338 819 412 787 c 0
 522 740 664 769 792 721 c 0
 923 672 1040 547 1040 375 c 0
 1040 192 897 -16 582 -16 c 0
 465 -16 319 11 192 39 c 1
 192 163 l 1
 319 133 468 104 582 104 c 0
 814 104 912 240 912 375 c 0
 912 493 835 575 744 609 c 0
 619 656 487 619 348 683 c 0
 240 733 152 837 152 972 c 0
 152 1127 288 1296 570 1296 c 0
 671 1296 811 1265 930 1233 c 1
 930 1108 l 1
 810 1142 669 1176 570 1176 c 0
EndSplineSet
Layer: 2
Layer: 3
Layer: 4
EndChar
StartChar: uni0219
Encoding: 537 537 463
Width: 1152
VWidth: 0
Flags: W
HStem: -528 120<512 611.008> -16 120<260.566 720.345> 920 120<413.623 843.839>
VStem: 234 128<687.599 867.607> 640 128<-361.261 -128> 800 128<183.035 441.813>
LayerCount: 5
Back
Fore
SplineSet
768 -233 m 2
 768 -293 768 -363 716 -433 c 0
 674 -490 602 -528 512 -528 c 1
 512 -408 l 1
 559 -408 591 -391 612 -363 c 0
 640 -326 640 -283 640 -233 c 2
 640 -128 l 1
 768 -128 l 1
 768 -233 l 2
567 -16 m 0
 474 -16 355 7 256 26 c 1
 256 149 l 1
 351 129 480 104 567 104 c 0
 755 104 800 231 800 313 c 0
 800 397 757 458 700 488 c 0
 614 532 507 510 402 550 c 0
 318 582 234 661 234 776 c 0
 234 904 343 1040 572 1040 c 0
 679 1040 789 1012 886 989 c 1
 886 866 l 1
 788 889 665 920 572 920 c 0
 410 920 362 834 362 776 c 0
 362 719 404 679 450 662 c 0
 543 627 654 651 762 594 c 0
 855 545 928 445 928 313 c 0
 928 147 810 -16 567 -16 c 0
EndSplineSet
Layer: 2
Layer: 3
Layer: 4
EndChar
StartChar: uni021A
Encoding: 538 538 464
Width: 1024
VWidth: 0
Flags: W
HStem: -400 120<384 483.1> 0 21G<512 640> 1160 120<128 512 640 1024>
VStem: 512 128<-243.403 -128 0 1160>
LayerCount: 5
Back
Fore
SplineSet
588 -315 m 4
 547 -367 474 -400 384 -400 c 5
 384 -280 l 5
 431 -280 465.035029578 -268.028892655 484 -245 c 4
 512 -211 512 -173 512 -128 c 5
 555 -128 597 -128 640 -128 c 5
 640 -184 640.023720579 -249.018695851 588 -315 c 4
1024 1280 m 1
 1024 1160 l 1
 640 1160 l 1
 640 0 l 1
 512 0 l 1
 512 1160 l 1
 128 1160 l 1
 128 1280 l 1
 1024 1280 l 1
EndSplineSet
Layer: 2
Layer: 3
Layer: 4
EndChar
StartChar: uni021B
Encoding: 539 539 465
Width: 1152
VWidth: 0
Flags: W
HStem: -400 120<512 611.1> -16 120<572.738 893.297> 898 126<128 384 512 896>
VStem: 384 128<164.235 898 1024 1280> 640 128<-243.403 -128>
LayerCount: 5
Back
Fore
SplineSet
716 -315 m 4
 675 -367 602 -400 512 -400 c 5
 512 -280 l 5
 559 -280 593.035029578 -268.028892655 612 -245 c 4
 640 -211 640 -173 640 -128 c 5
 683 -128 725 -128 768 -128 c 5
 768 -184 768.023720579 -249.018695851 716 -315 c 4
896 19 m 1
 836 -1 769 -16 694 -16 c 0
 588 -16 504.144656579 29.1196788314 452 92 c 0
 384 174 384 271 384 360 c 2
 384 898 l 1
 128 898 l 1
 128 1024 l 1
 384 1024 l 1
 384 1280 l 1
 512 1280 l 1
 512 1024 l 1
 896 1024 l 1
 896 898 l 1
 512 898 l 1
 512 370 l 2
 512 284 511.536346898 217.613088059 555 166 c 0
 587 128 637 104 704 104 c 0
 772 104 841 125 896 147 c 1
 896 19 l 1
EndSplineSet
Layer: 2
Layer: 3
Layer: 4
EndChar
StartChar: tildecomb
Encoding: 771 771 296
Width: 1024
VWidth: 0
Flags: W
HStem: 1284 120<623.658 756.749> 1412 120<395.276 528.342>
VStem: 253 128<1305 1405.1> 771 128<1411.78 1511>
LayerCount: 5
Back
Fore
SplineSet
448 1412 m 0
 397 1412 384 1353 381 1299 c 1
 253 1305 l 1
 257 1423 319 1532 448 1532 c 0
 594 1532 627 1404 704 1404 c 0
 755 1404 768 1463 771 1517 c 1
 899 1511 l 1
 896 1395 833 1284 704 1284 c 0
 558 1284 525 1412 448 1412 c 0
EndSplineSet
Layer: 2
Layer: 3
Layer: 4
EndChar
StartChar: uni030B
Encoding: 779 779 302
Width: 1024
VWidth: 0
Flags: W
HStem: 1280 256
VStem: 360 560
LayerCount: 5
Back
Fore
SplineSet
360 1280 m 5
 526 1536 l 5
 664 1536 l 5
 498 1280 l 5
 360 1280 l 5
616 1280 m 5
 782 1536 l 5
 920 1536 l 5
 754 1280 l 5
 616 1280 l 5
EndSplineSet
Layer: 2
Layer: 3
Layer: 4
EndChar
StartChar: uni030F
Encoding: 783 783 435
Width: 1024
VWidth: 0
Flags: W
HStem: 1280 256
VStem: 232 560
LayerCount: 5
Back
Fore
SplineSet
792 1280 m 5
 654 1280 l 5
 488 1536 l 5
 626 1536 l 5
 792 1280 l 5
536 1280 m 5
 398 1280 l 5
 232 1536 l 5
 370 1536 l 5
 536 1280 l 5
EndSplineSet
Layer: 2
Layer: 3
Layer: 4
EndChar
StartChar: uni0326
Encoding: 806 806 306
Width: 1024
VWidth: 0
Flags: W
HStem: -528 120<384 483.008>
VStem: 512 128<-361.261 -128>
LayerCount: 5
Back
Fore
SplineSet
640 -233 m 2
 640 -293 640 -363 588 -433 c 0
 546 -490 474 -528 384 -528 c 1
 384 -408 l 1
 431 -408 463 -391 484 -363 c 0
 512 -326 512 -283 512 -233 c 2
 512 -128 l 1
 640 -128 l 1
 640 -233 l 2
EndSplineSet
Layer: 2
Layer: 3
Layer: 4
EndChar
StartChar: tonos
Encoding: 900 900 565
Width: 1024
VWidth: 0
Flags: W
HStem: 1131.39 306.224
VStem: 504.304 281.392
LayerCount: 5
Back
Fore
SplineSet
690.304084305 1437.61186219 m 5
 785.695915695 1358.38813781 l 5
 578.696289062 1131.38769531 l 5
 504.303710938 1193.61230469 l 5
 690.304084305 1437.61186219 l 5
EndSplineSet
Layer: 2
Layer: 3
Layer: 4
EndChar
StartChar: Kappa
Encoding: 922 922 478
Width: 1024
VWidth: 0
Flags: W
HStem: 0 21G<128 256 890.881 1062> 1388 20G<128 256 813.338 969>
VStem: 128 128<0 558 719 1408>
LayerCount: 5
Back
Fore
SplineSet
256 0 m 5
 128 0 l 5
 128 1408 l 5
 256 1408 l 5
 256 719 l 5
 830 1408 l 5
 969 1408 l 5
 481 813 l 5
 1062 0 l 5
 905 0 l 5
 396 721 l 5
 256 558 l 5
 256 0 l 5
EndSplineSet
Layer: 2
Layer: 3
Layer: 4
EndChar
StartChar: Nu
Encoding: 925 925 477
Width: 1024
VWidth: 0
Flags: W
HStem: 0 21G<128 256 885.119 1024> 1388 20G<128 265.898 896 1024>
VStem: 128 128<0 1158> 896 128<250 1408>
LayerCount: 5
Back
Fore
SplineSet
256 0 m 5
 128 0 l 5
 128 1408 l 5
 255 1408 l 5
 886 250 l 5
 896 250 l 5
 896 1408 l 5
 1024 1408 l 5
 1024 0 l 5
 896 0 l 5
 266 1158 l 5
 256 1158 l 5
 256 0 l 5
EndSplineSet
Layer: 2
Layer: 3
Layer: 4
EndChar
StartChar: Upsilon
Encoding: 933 933 481
Width: 1024
VWidth: 0
Flags: W
HStem: 0 21G<512 640> 1388 20G<113 270.5 881.5 1039>
VStem: 113 125<1255.11 1408> 512 128<0 675.443> 914 125<1255.11 1408>
CounterMasks: 1 38
LayerCount: 5
Back
Fore
SplineSet
113 1408 m 5
 238 1408 l 5
 303 1145 398 921 561 740 c 5
 591 740 l 5
 754 921 849 1145 914 1408 c 5
 1039 1408 l 5
 978 1134 868 871 640 630 c 5
 640 0 l 1
 512 0 l 1
 512 630 l 5
 284 871 174 1134 113 1408 c 5
EndSplineSet
Layer: 2
Layer: 3
Layer: 4
EndChar
StartChar: Psi
Encoding: 936 936 529
Width: 1024
VWidth: 0
Flags: W
HStem: 0 21G<512 640> 384 120<284.37 512 640 867.63> 1388 20G<128 256 512 640 896 1024>
VStem: 128 128<532.71 1408> 512 128<0 384 504 1408> 896 128<532.71 1408>
CounterMasks: 1 1c
LayerCount: 5
Back
Fore
SplineSet
384 504 m 6
 512 504 l 5
 512 1408 l 1
 640 1408 l 1
 640 504 l 5
 768 504 l 6
 811 504 845.000048625 520.999957453 866 545 c 4
 895.858398438 579.124023438 896 627 896 694 c 6
 896 1408 l 5
 1024 1408 l 5
 1024 694 l 6
 1024 610 1023.99974794 540.000187246 972 470 c 4
 934.908203125 420.068359375 874 384 798 384 c 4
 745.333333333 384 692.666666667 384 640 384 c 5
 640 0 l 5
 512 0 l 5
 512 384 l 5
 354 384 l 6
 278 384 217.091976674 420.068492939 180 470 c 4
 128 540 128 610 128 694 c 6
 128 1408 l 5
 256 1408 l 5
 256 694 l 6
 256 627 256.141532425 579.123962943 286 545 c 4
 307 521 341 504 384 504 c 6
EndSplineSet
Layer: 2
Layer: 3
Layer: 4
EndChar
StartChar: upsilondieresistonos
Encoding: 944 944 549
Width: 1024
VWidth: 0
Flags: W
HStem: -16 120<449.105 702.91> 1004 20G<256 384 768 896> 1136 224<201.032 382.968 769.032 950.968>
VStem: 180 224<1157.03 1338.97> 256 128<171.742 1024> 748 224<1157.03 1338.97> 768 128<171.731 1024>
LayerCount: 5
Back
Fore
SplineSet
860 1360 m 4xe4
 926 1360 972 1314 972 1248 c 4
 972 1182 926 1136 860 1136 c 4
 794 1136 748 1182 748 1248 c 4
 748 1314 794 1360 860 1360 c 4xe4
292 1360 m 4
 358 1360 404 1314 404 1248 c 4
 404 1182 358 1136 292 1136 c 4
 226 1136 180 1182 180 1248 c 4xf0
 180 1314 226 1360 292 1360 c 4
690.303710938 1565.61230469 m 5
 785.696289062 1486.38769531 l 5
 578.696289062 1259.38769531 l 5
 504.303710938 1321.61230469 l 5
 690.303710938 1565.61230469 l 5
896 337 m 1026xe2
256 337 m 2xea
 256 1024 l 1
 384 1024 l 1
 384 337 l 2
 384 301 385 268 392 240 c 0
 412.235351562 159.05859375 478 104 576 104 c 0
 674 104 739.764648438 159.05859375 760 240 c 0
 767 268 768 301 768 337 c 2
 768 1024 l 1
 896 1024 l 1
 896 337 l 2
 896 299 895.935018971 258.013241598 887 214 c 0
 860 81 748.563476562 -16 576 -16 c 0
 403.436523438 -16 292.196360834 81.0400136982 265 214 c 0
 256 258 256 299 256 337 c 2xea
384 337 m 1026
EndSplineSet
Layer: 2
Layer: 3
Layer: 4
EndChar
StartChar: epsilon
Encoding: 949 949 485
Width: 1024
VWidth: 0
Flags: W
HStem: -16 120<335.503 725.258> 512 120<384 722.816> 920 120<337.394 734.833>
VStem: 800 128<178.08 435.62 693.694 857.123>
LayerCount: 5
Back
Fore
SplineSet
775 563 m 5
 888 508 928 417 928 308 c 4
 928 116 779 -16 576 -16 c 4
 473 -16 363 15 256 44 c 5
 256 170 l 5
 366 140 485 104 576 104 c 4
 708 104 800 181 800 308 c 4
 800 410 734 483 645 503 c 4
 609 511 568 512 522 512 c 6
 384 512 l 5
 384 632 l 5
 430 632 477 632 523 632 c 4
 572 632 610 632 656 641 c 4
 724 654 790 703 790 777 c 4
 790 848 720 920 577 920 c 4
 485 920 376 887 276 858 c 5
 276 984 l 5
 375 1012 480 1040 577 1040 c 4
 783 1040 918 922 918 777 c 4
 918 680 869 612 775 573 c 5
 775 563 l 5
EndSplineSet
Layer: 2
Layer: 3
Layer: 4
EndChar
StartChar: tau
Encoding: 964 964 489
Width: 1024
VWidth: 0
Flags: W
HStem: -16 120<668.725 894.027> 904 120<256 512 640 896>
VStem: 512 128<149.787 904>
LayerCount: 5
Back
Fore
SplineSet
896 1024 m 1
 896 904 l 1
 640 904 l 1
 640 640 l 1
 640 279 l 2
 640 232 640 186 668 148 c 0
 688 121 719 104 768 104 c 0
 805 104 855 113 896 121 c 1
 896 -2 l 1
 853 -9 808 -16 758 -16 c 0
 686 -16 627 9 585 52 c 0
 512 128 512 218 512 279 c 2
 512 640 l 1
 512 904 l 1
 256 904 l 1
 256 1024 l 1
 896 1024 l 1
EndSplineSet
Layer: 2
Layer: 3
Layer: 4
EndChar
StartChar: psi
Encoding: 968 968 527
Width: 1024
VWidth: 0
Flags: W
HStem: 0 120<284.37 512 640 867.63> 1004 20G<128 256 896 1024> 1388 20G<512 640>
VStem: 128 128<148.71 1024> 512 128<-384 0 120 1408> 896 128<148.71 1024>
CounterMasks: 1 1c
LayerCount: 5
Back
Fore
SplineSet
384 120 m 6
 512 120 l 5
 512 1408 l 5
 640 1408 l 5
 640 120 l 5
 768 120 l 6
 811 120 845.000048625 136.999957453 866 161 c 4
 895.858398438 195.124023438 896 243 896 310 c 6
 896 1024 l 5
 1024 1024 l 5
 1024 310 l 6
 1024 226 1023.99974794 156.000187246 972 86 c 4
 934.908203125 36.068359375 874 0 798 0 c 4
 745.333333333 -0 692.666666667 0 640 0 c 5
 640 -384 l 5
 512 -384 l 5
 512 0 l 5
 354 0 l 6
 278 0 217.091976674 36.0684929392 180 86 c 4
 128 156 128 226 128 310 c 6
 128 1024 l 5
 256 1024 l 5
 256 310 l 6
 256 243 256.141532425 195.123962943 286 161 c 4
 307 137 341 120 384 120 c 6
EndSplineSet
Layer: 2
Layer: 3
Layer: 4
EndChar
StartChar: uni0403
Encoding: 1027 1027 407
Width: 1024
VWidth: 0
Flags: W
HStem: 0 21G<256 384> 1032 120<384 1024>
VStem: 256 128<0 1032>
LayerCount: 5
Back
Fore
SplineSet
488 1280 m 5
 654 1536 l 5
 792 1536 l 5
 626 1280 l 5
 488 1280 l 5
256 1152 m 5
 1024 1152 l 5
 1024 1032 l 5
 384 1032 l 5
 384 0 l 1
 256 0 l 1
 256 1152 l 5
EndSplineSet
Layer: 2
Layer: 3
Layer: 4
EndChar
StartChar: uni040D
Encoding: 1037 1037 403
Width: 1024
VWidth: 0
Flags: W
HStem: 0 21G<128 269.376 896 1024>
VStem: 128 128<210 1152> 896 128<0 942>
LayerCount: 5
Back
Fore
SplineSet
664 1280 m 1
 526 1280 l 1
 360 1536 l 1
 498 1536 l 1
 664 1280 l 1
896 0 m 1
 896 942 l 1
 886 942 l 1
 256 0 l 1
 128 0 l 1
 128 1152 l 1
 256 1152 l 1
 256 210 l 1
 266 210 l 1
 897 1152 l 1
 1024 1152 l 1
 1024 0 l 1
 896 0 l 1
EndSplineSet
Layer: 2
Layer: 3
Layer: 4
EndChar
StartChar: uni0410
Encoding: 1040 1040 319
Width: 1024
VWidth: 0
Flags: W
HStem: 0 21G<103 243.5 908.5 1049> 388 120<316 836> 1289 119<549.921 602.079>
VStem: 103 135<0 322.307> 914 135<0 322.307>
LayerCount: 5
Back
Fore
SplineSet
836 508 m 5
 769 800 696 1061 581 1289 c 5
 571 1289 l 5
 456 1061 383 800 316 508 c 5
 836 508 l 5
103 0 m 5
 156 496 267 971 511 1408 c 5
 641 1408 l 5
 885 971 996 496 1049 0 c 5
 914 0 l 5
 903 136 878 265 859 388 c 5
 293 388 l 5
 274 265 249 136 238 0 c 5
 103 0 l 5
EndSplineSet
Layer: 2
Layer: 3
Layer: 4
EndChar
StartChar: uni0412
Encoding: 1042 1042 321
Width: 1024
VWidth: 0
Flags: W
HStem: 0 120<256 810.858> 648 120<256 679.29> 1288 120<256 676.624>
VStem: 128 128<120 648 768 1288> 784 128<875.533 1182.62> 912 128<226.019 546.394>
LayerCount: 5
Back
Fore
SplineSet
449 768 m 2xf8
 525 768 565 769 601 778 c 0
 709 804 784 896 784 1028 c 0
 784 1160 709 1254 601 1278 c 0
 565 1286 525 1288 449 1288 c 2
 256 1288 l 1
 256 768 l 1
 449 768 l 2xf8
912 1028 m 0
 912 896 849 798 763 748 c 1
 925 704 1040 566 1040 384 c 0xf4
 1040 193 928 54 776 16 c 0
 712 0 648 0 563 0 c 2
 128 0 l 1
 128 1408 l 1
 449 1408 l 2
 526 1408 578 1408 633 1395 c 0
 792 1357 912 1222 912 1028 c 0
256 648 m 1
 256 120 l 1
 563 120 l 2
 644 120 699 120 744 132 c 0
 843 158 912 254 912 384 c 0
 912 514 844 612 744 636 c 0
 699 647 644 648 563 648 c 2
 256 648 l 1
EndSplineSet
Layer: 2
Layer: 3
Layer: 4
EndChar
StartChar: uni042C
Encoding: 1068 1068 347
Width: 1024
VWidth: 0
Flags: W
HStem: 0 120<256 810.858> 648 120<256 810.858> 1388 20G<128 256>
VStem: 128 128<120 648 768 1408> 912 128<226.019 541.981>
LayerCount: 5
Back
Fore
SplineSet
256 768 m 5
 563 768 l 6
 648 768 712 768 776 752 c 4
 928 714 1040 575 1040 384 c 4
 1040 193 928 54 776 16 c 4
 712 0 648 0 563 0 c 6
 128 0 l 5
 128 1408 l 5
 256 1408 l 5
 256 768 l 5
256 648 m 5
 256 120 l 5
 563 120 l 6
 644 120 699 120 744 132 c 4
 843 158 912 254 912 384 c 4
 912 514 843 610 744 636 c 4
 699 648 644 648 563 648 c 6
 256 648 l 5
EndSplineSet
Layer: 2
Layer: 3
Layer: 4
EndChar
StartChar: uni042D
Encoding: 1069 1069 348
Width: 1024
VWidth: 0
Flags: W
HStem: -16 120<225.61 643.615> 648 120<256 784> 1304 120<224.182 643.739>
VStem: 784 128<293.316 648 768 1114.68>
LayerCount: 5
Back
Fore
SplineSet
128 173 m 5
 249 142 387 104 509 104 c 4
 655 104 737 220 766 392 c 4
 779 472 783 559 784 648 c 5
 256 648 l 5
 256 768 l 5
 784 768 l 5
 783 854 779 938 766 1016 c 4
 738 1188 655 1304 509 1304 c 4
 397 1304 271 1272 158 1243 c 5
 158 1367 l 5
 267 1395 386 1424 509 1424 c 4
 722 1424 853 1267 891 1044 c 4
 911 930 912 814 912 704 c 4
 912 594 910 478 891 364 c 4
 853 141 722 -16 509 -16 c 4
 375 -16 245 19 128 49 c 5
 128 173 l 5
EndSplineSet
Layer: 2
Layer: 3
Layer: 4
EndChar
StartChar: uni042F
Encoding: 1071 1071 350
Width: 1024
VWidth: 0
Flags: W
HStem: 0 21G<87 228.539 768 896> 640 120<463 768> 1288 120<347.376 768>
VStem: 112 128<868.856 1180.75> 768 128<0 640 760 1288>
LayerCount: 5
Back
Fore
SplineSet
768 0 m 1
 768 640 l 1
 575 640 l 2
 531 640 496 640 463 642 c 1
 221 0 l 1
 87 0 l 1
 338 670 l 1
 206 723 112 851 112 1024 c 0
 112 1220 232 1357 391 1395 c 0
 446 1408 498 1408 575 1408 c 2
 896 1408 l 1
 896 0 l 1
 768 0 l 1
575 760 m 2
 768 760 l 1
 768 1288 l 1
 575 1288 l 2
 499 1288 459 1286 423 1278 c 0
 315 1254 240 1158 240 1024 c 0
 240 890 315 794 423 770 c 0
 459 762 499 760 575 760 c 2
EndSplineSet
Layer: 2
Layer: 3
Layer: 4
EndChar
StartChar: uni0438
Encoding: 1080 1080 359
Width: 1024
VWidth: 0
Flags: W
HStem: 0 21G<256 394.108 768 896>
VStem: 256 128<240 980> 768 128<0 740>
LayerCount: 5
Back
Fore
SplineSet
768 0 m 1
 768 740 l 1
 758 740 l 1
 384 0 l 1
 256 0 l 1
 256 980 l 1
 384 980 l 1
 384 240 l 1
 394 240 l 1
 769 980 l 1
 896 980 l 1
 896 0 l 1
 768 0 l 1
EndSplineSet
Layer: 2
Layer: 3
Layer: 4
EndChar
StartChar: uni0439
Encoding: 1081 1081 360
Width: 1024
VWidth: 0
Flags: W
HStem: 0 21G<256 394.108 768 896> 1136 120<418.746 733.254> 1388 20G<236 364 788 916>
VStem: 236 128<1307.69 1408> 256 128<240 980> 768 128<0 740> 788 128<1307.69 1408>
LayerCount: 5
Back
Fore
SplineSet
768 0 m 1xec
 768 740 l 1
 758 740 l 1
 384 0 l 1
 256 0 l 1
 256 980 l 1
 384 980 l 1
 384 240 l 1
 394 240 l 1
 769 980 l 1
 896 980 l 1
 896 0 l 1
 768 0 l 1xec
788 1408 m 1xf2
 916 1408 l 1
 916 1240 764 1136 576 1136 c 0
 388 1136 236 1240 236 1408 c 1
 364 1408 l 1
 364 1322 433 1256 576 1256 c 0
 719 1256 788 1322 788 1408 c 1xf2
EndSplineSet
Layer: 2
Layer: 3
Layer: 4
EndChar
StartChar: uni043D
Encoding: 1085 1085 364
Width: 1024
VWidth: 0
Flags: W
HStem: 0 21G<256 384 768 896> 512 120<384 768> 1004 20G<256 384 768 896>
VStem: 256 128<0 512 632 1024> 768 128<0 512 632 1024>
LayerCount: 5
Back
Fore
SplineSet
256 1024 m 5
 384 1024 l 5
 384 632 l 5
 768 632 l 5
 768 1024 l 5
 896 1024 l 5
 896 0 l 5
 768 0 l 5
 768 512 l 5
 384 512 l 5
 384 0 l 5
 256 0 l 5
 256 1024 l 5
EndSplineSet
Layer: 2
Layer: 3
Layer: 4
EndChar
StartChar: uni0443
Encoding: 1091 1091 370
Width: 1024
VWidth: 0
Flags: W
HStem: -400 114<256 436.156> 1004 20G<201 357.5 791.5 951>
VStem: 201 135<738.402 1024> 816 135<808.551 1024>
LayerCount: 5
Back
Fore
SplineSet
497 0 m 5
 317 328 241 663 201 1024 c 5
 336 1024 l 5
 379 651 458 332 592 78 c 5
 602 78 l 5
 701 406 767 720 816 1024 c 5
 951 1024 l 5
 866 580 772 142 616 -273 c 4
 596 -327 547 -371 474 -385 c 4
 415 -396 341 -400 256 -400 c 5
 256 -286 l 5
 339 -286 399 -285 438 -278 c 4
 470 -272 490 -247 505 -214 c 4
 539 -139 560 -79 585 0 c 5
 497 0 l 5
EndSplineSet
Layer: 2
Layer: 3
Layer: 4
EndChar
StartChar: uni044B
Encoding: 1099 1099 377
Width: 1024
VWidth: 0
Flags: W
HStem: 0 120<384 596.496> 516 120<385 596.496> 1004 20G<256 385 896 1024>
VStem: 256 128<120 516 636 1024> 658 128<181.273 454.727> 896 128<0 1024>
LayerCount: 5
Back
Fore
SplineSet
1024 1024 m 1
 1024 0 l 1
 896 0 l 1
 896 1024 l 1
 1024 1024 l 1
384 516 m 5
 384 120 l 5
 442 120 l 6
 477 120 507 122 532 128 c 4
 610 148 658 220 658 318 c 4
 658 416 610 488 532 508 c 4
 507 514 477 516 442 516 c 6
 384 516 l 5
385 636 m 5
 442 636 l 6
 479 636 522 636 567 624 c 4
 696 590 786 477 786 318 c 4
 786 159 696 46 567 12 c 4
 522 0 479 0 442 0 c 6
 256 0 l 5
 256 1024 l 5
 385 1024 l 5
 385 636 l 5
EndSplineSet
Layer: 2
Layer: 3
Layer: 4
EndChar
StartChar: uni044C
Encoding: 1100 1100 378
Width: 1024
VWidth: 0
Flags: W
HStem: 0 120<384 738.496> 516 120<385 738.496> 1004 20G<256 385>
VStem: 256 128<120 516 636 1024> 800 128<181.273 454.727>
LayerCount: 5
Back
Fore
SplineSet
384 516 m 5
 384 120 l 5
 584 120 l 6
 619 120 649 122 674 128 c 4
 752 148 800 220 800 318 c 4
 800 416 752 488 674 508 c 4
 649 514 619 516 584 516 c 6
 384 516 l 5
385 636 m 5
 584 636 l 6
 621 636 664 636 709 624 c 4
 838 590 928 477 928 318 c 4
 928 159 838 46 709 12 c 4
 664 0 621 0 584 0 c 6
 256 0 l 5
 256 1024 l 5
 385 1024 l 5
 385 636 l 5
EndSplineSet
Layer: 2
Layer: 3
Layer: 4
EndChar
StartChar: uni044E
Encoding: 1102 1102 380
Width: 1024
VWidth: 0
Flags: W
HStem: -16 120<594.314 813.686> 0 21G<128 256> 448 120<256 369> 920 120<594.314 813.686> 1004 20G<128 256>
VStem: 128 128<0 448 568 1024> 369 127<222.036 448 568 801.278> 912 128<221.74 802.26>
LayerCount: 5
Back
SplineSet
576 980 m 4
 568.989421542 980 561.978841458 979.666319904 555 979 c 4
 506.468108589 974.366313245 460.042267267 952.939326908 423.56759853 920.591002725 c 4
 387.092929793 888.242678542 360.506139892 845.725327359 342.838216596 800.286797197 c 4
 307.502370003 709.409736873 304 609.505190362 304 512 c 4
 304 414.494809638 307.502370002 314.590263127 342.838216595 223.713202803 c 4
 360.506139891 178.27467264 387.092929792 135.757321457 423.567598529 103.408997275 c 4
 460.042267266 71.060673092 506.468108589 49.6336867545 555 45 c 4
 561.978841458 44.333680096 568.989421542 44 576 44 c 4
 583.010578458 44 590.021158542 44.333680096 597 45 c 4
 645.531891411 49.6336867546 691.957732733 71.0606730922 728.43240147 103.408997275 c 4
 764.907070207 135.757321458 791.493860108 178.274672641 809.161783404 223.713202803 c 4
 844.497629997 314.590263127 848 414.494809638 848 512 c 4
 848 609.505190362 844.497629998 709.409736873 809.161783405 800.286797197 c 4
 791.493860109 845.72532736 764.907070208 888.242678543 728.432401471 920.591002725 c 4
 691.957732734 952.939326908 645.531891411 974.366313246 597 979 c 4
 590.021158542 979.666319904 583.010578458 980 576 980 c 4
  Spiro
    576 980 o
    555 979 o
    304 512 o
    555 45 o
    576 44 o
    597 45 o
    848 512 o
    597 979 o
    0 0 z
  EndSpiro
EndSplineSet
Fore
SplineSet
704 1040 m 0x37
 855 1040 954 931 997 821 c 0
 1037 718 1040 611 1040 512 c 0
 1040 413 1037 306 997 203 c 0
 954 93 855 -16 704 -16 c 0xb7
 553 -16 454 93 411 203 c 0
 379 284 371 368 369 448 c 1
 256 448 l 1
 256 0 l 1
 128 0 l 1
 128 1024 l 1
 256 1024 l 1x6f
 256 568 l 1
 369 568 l 1
 371 651 378 737 411 821 c 0
 454 931 553 1040 704 1040 c 0x37
496 512 m 0
 496 416 500 323 531 244 c 0
 558 174 614 104 704 104 c 0
 794 104 850 174 877 244 c 0
 908 323 912 416 912 512 c 0
 912 608 908 701 877 780 c 0
 850 850 794 920 704 920 c 0
 614 920 558 850 531 780 c 0
 500 701 496 608 496 512 c 0
EndSplineSet
Layer: 2
SplineSet
576 1040 m 4
 585.173828125 1040 594.348632812 1039.56347656 603.486328125 1038.69140625 c 4
 667.732421875 1032.55761719 726.654296875 1004.76171875 772.415039062 964.177734375 c 4
 817.969726562 923.776367188 849.004882812 873.010742188 869.291992188 820.8359375 c 4
 909.328125 717.87109375 912 610.581054688 912 512 c 4
 912 413.420898438 909.327148438 306.127929688 869.291992188 203.1640625 c 4
 849.006835938 150.995117188 817.966796875 100.220703125 772.415039062 59.822265625 c 4
 726.65625 19.240234375 667.732421875 -8.5576171875 603.484375 -14.69140625 c 4
 594.3515625 -15.5634765625 585.172851562 -16 576 -16 c 4
 566.826171875 -16 557.651367188 -15.5634765625 548.513671875 -14.69140625 c 4
 484.267578125 -8.5576171875 425.345703125 19.23828125 379.584960938 59.822265625 c 4
 334.030273438 100.223632812 302.995117188 150.989257812 282.708007812 203.1640625 c 4
 242.671875 306.12890625 240 413.418945312 240 512 c 4
 240 610.579101562 242.672851562 717.872070312 282.708007812 820.8359375 c 4
 302.993164062 873.004882812 334.033203125 923.779296875 379.584960938 964.177734375 c 4
 425.34375 1004.75976562 484.267578125 1032.55761719 548.515625 1038.69140625 c 4
 557.6484375 1039.56347656 566.827148438 1040 576 1040 c 4
  Spiro
    576 1040 o
    585.164 1039.85 o
    594.347 1039.42 o
    603.486 1038.69 o
    665.608 1025.69 o
    722.611 1000.14 o
    772.415 964.178 o
    813.233 920.7 o
    845.31 872.159 o
    869.292 820.836 o
    898.139 717.017 o
    909.83 612.898 o
    912 512 o
    909.83 411.102 o
    898.139 306.983 o
    869.292 203.164 o
    845.311 151.843 o
    813.232 103.3 o
    772.415 59.8223 o
    722.612 23.8616 o
    665.607 -1.68473 o
    603.484 -14.6914 o
    594.347 -15.4177 o
    585.164 -15.8548 o
    576 -16 o
    566.836 -15.8548 o
    557.653 -15.4177 o
    548.514 -14.6914 o
    486.392 -1.68516 o
    429.389 23.8607 o
    379.585 59.8223 o
    338.767 103.3 o
    306.69 151.841 o
    282.708 203.164 o
    253.861 306.983 o
    242.17 411.102 o
    240 512 o
    242.17 612.898 o
    253.861 717.017 o
    282.708 820.836 o
    306.689 872.157 o
    338.768 920.7 o
    379.585 964.178 o
    429.388 1000.14 o
    486.393 1025.68 o
    548.516 1038.69 o
    557.653 1039.42 o
    566.836 1039.85 o
    0 0 z
  EndSpiro
576 920 m 4
 571.151367188 920 566.30859375 919.76953125 561.484375 919.30859375 c 4
 528.66796875 916.17578125 494.740234375 901.119140625 467.549804688 877.00390625 c 4
 440.15234375 852.706054688 418.018554688 818.446289062 402.967773438 779.73828125 c 4
 372.331054688 700.948242188 368 608.430664062 368 512 c 4
 368 415.571289062 372.33203125 323.05078125 402.967773438 244.26171875 c 4
 418.016601562 205.55859375 440.155273438 171.291015625 467.549804688 146.99609375 c 4
 494.73828125 122.8828125 528.66796875 107.82421875 561.486328125 104.69140625 c 4
 566.305664062 104.23046875 571.15234375 104 576 104 c 4
 580.848632812 104 585.69140625 104.23046875 590.515625 104.69140625 c 4
 623.33203125 107.82421875 657.259765625 122.880859375 684.450195312 146.99609375 c 4
 711.84765625 171.293945312 733.981445312 205.553710938 749.032226562 244.26171875 c 4
 779.668945312 323.051757812 784 415.569335938 784 512 c 4
 784 608.428710938 779.66796875 700.94921875 749.032226562 779.73828125 c 4
 733.983398438 818.44140625 711.844726562 852.708984375 684.450195312 877.00390625 c 4
 657.26171875 901.1171875 623.33203125 916.17578125 590.513671875 919.30859375 c 4
 585.694335938 919.76953125 580.84765625 920 576 920 c 4
  Spiro
    576 920 o
    571.159 919.923 o
    566.309 919.692 o
    561.484 919.309 o
    528.621 912.318 o
    496.665 897.976 o
    467.55 877.004 o
    441.998 849.62 o
    420.293 816.724 o
    402.968 779.738 o
    380.301 696.823 o
    370.252 606.67 o
    368 512 o
    370.252 417.331 o
    380.302 327.177 o
    402.968 244.262 o
    420.292 207.277 o
    441.999 174.38 o
    467.55 146.996 o
    496.664 126.025 o
    528.621 111.682 o
    561.486 104.691 o
    566.309 104.308 o
    571.158 104.077 o
    576 104 o
    580.841 104.077 o
    585.691 104.308 o
    590.516 104.691 o
    623.379 111.682 o
    655.335 126.024 o
    684.45 146.996 o
    710.002 174.38 o
    731.707 207.276 o
    749.032 244.262 o
    771.699 327.177 o
    781.748 417.33 o
    784 512 o
    781.748 606.669 o
    771.698 696.823 o
    749.032 779.738 o
    731.708 816.723 o
    710.001 849.62 o
    684.45 877.004 o
    655.336 897.975 o
    623.379 912.318 o
    590.514 919.309 o
    585.691 919.692 o
    580.842 919.923 o
    0 0 z
  EndSpiro
EndSplineSet
Layer: 3
Layer: 4
EndChar
StartChar: uni0453
Encoding: 1107 1107 406
Width: 1024
VWidth: 0
Flags: W
HStem: 0 21G<256 384> 904 120<384 896> 1388 20G<641.031 792>
VStem: 256 128<0 904>
LayerCount: 5
Back
Fore
SplineSet
488 1152 m 5
 654 1408 l 5
 792 1408 l 5
 626 1152 l 5
 488 1152 l 5
256 1024 m 1
 896 1024 l 1
 896 904 l 1
 384 904 l 1
 384 0 l 1
 256 0 l 1
 256 1024 l 1
EndSplineSet
Layer: 2
Layer: 3
Layer: 4
EndChar
StartChar: uni0454
Encoding: 1108 1108 395
Width: 1024
VWidth: 0
Flags: W
HStem: -16 120<450.263 890.041> 512 120<354 757> 920 120<450.263 870.416>
VStem: 224 128<210.579 512 632 813.421>
LayerCount: 5
Back
Fore
SplineSet
224 512 m 4
 224 633 226 738 264 831 c 4
 311 946 417 1040 586 1040 c 4
 664 1040 757 1026 876 1003 c 5
 876 880 l 5
 756 905 657 920 586 920 c 4
 485 920 420 872 384 789 c 4
 365 745 357 691 354 632 c 5
 757 632 l 5
 757 512 l 5
 352 512 l 5
 352 410 352 308 384 235 c 4
 420 152 485 104 586 104 c 4
 662 104 768 121 896 148 c 5
 896 25 l 5
 769 -1 669 -16 586 -16 c 4
 417 -16 311 78 264 193 c 4
 226 286 224 391 224 512 c 4
EndSplineSet
Layer: 2
Layer: 3
Layer: 4
EndChar
StartChar: uni0456
Encoding: 1110 1110 397
Width: 1024
VWidth: 0
Flags: W
HStem: 0 120<256 512 640 896> 904 120<256 512> 1200 224<453.032 634.968>
VStem: 432 224<1221.03 1402.97> 512 128<120 904>
LayerCount: 5
Back
Fore
SplineSet
256 0 m 1xe8
 256 120 l 1
 512 120 l 1
 512 904 l 5
 256 904 l 5
 256 1024 l 5
 640 1024 l 5
 640 120 l 1
 896 120 l 1
 896 0 l 1
 256 0 l 1xe8
544 1424 m 0
 610 1424 656 1378 656 1312 c 0
 656 1246 610 1200 544 1200 c 0
 478 1200 432 1246 432 1312 c 0xf0
 432 1378 478 1424 544 1424 c 0
EndSplineSet
Layer: 2
Layer: 3
Layer: 4
EndChar
StartChar: uni0458
Encoding: 1112 1112 399
Width: 1024
VWidth: 0
Flags: W
HStem: -400 120<258.703 579.284> 904 120<384 640> 1200 224<581.032 762.968>
VStem: 560 224<1221.03 1402.97> 640 128<-219.771 904>
LayerCount: 5
Back
Fore
SplineSet
672 1424 m 0xf0
 738 1424 784 1378 784 1312 c 0
 784 1246 738 1200 672 1200 c 0
 606 1200 560 1246 560 1312 c 0
 560 1378 606 1424 672 1424 c 0xf0
256 -237 m 1
 311 -259 380 -280 448 -280 c 0
 515 -280 565 -256 597 -218 c 0
 640 -166 640 -102 640 -14 c 2
 640 904 l 5
 384 904 l 5
 384 1024 l 5
 768 1024 l 5
 768 -24 l 2xe8
 768 -115 768 -210 700 -292 c 0
 648 -355 564 -400 458 -400 c 0
 383 -400 316 -385 256 -365 c 1
 256 -237 l 1
EndSplineSet
Layer: 2
Layer: 3
Layer: 4
EndChar
StartChar: uni0491
Encoding: 1169 1169 401
Width: 1024
VWidth: 0
Flags: W
HStem: 0 21G<256 384> 904 120<384 768>
VStem: 256 128<0 904> 768 128<1024 1280>
LayerCount: 5
Back
Fore
SplineSet
768 1280 m 5
 896 1280 l 5
 896 1155 896 1029 896 904 c 5
 384 904 l 5
 384 0 l 5
 256 0 l 5
 256 1024 l 5
 768 1024 l 5
 768 1280 l 5
EndSplineSet
Layer: 2
Layer: 3
Layer: 4
EndChar
StartChar: quotedblright
Encoding: 8221 8221 427
Width: 1024
VWidth: 0
Flags: W
HStem: 1008 120<256 355.008 640 739.008>
VStem: 384 128<1174.74 1536> 768 128<1174.74 1536>
LayerCount: 5
Back
Fore
SplineSet
512 1303 m 6
 512 1243 512 1173 460 1103 c 4
 418 1046 346 1008 256 1008 c 5
 256 1128 l 5
 303 1128 335 1145 356 1173 c 4
 384 1210 384 1253 384 1303 c 6
 384 1536 l 5
 512 1536 l 5
 512 1303 l 6
896 1303 m 6
 896 1243 896 1173 844 1103 c 4
 802 1046 730 1008 640 1008 c 5
 640 1128 l 5
 687 1128 719 1145 740 1173 c 4
 768 1210 768 1253 768 1303 c 6
 768 1536 l 5
 896 1536 l 5
 896 1303 l 6
EndSplineSet
Layer: 2
Layer: 3
Layer: 4
EndChar
StartChar: bullet
Encoding: 8226 8226 598
Width: 1024
VWidth: 0
Flags: W
HStem: 496 416<440.516 711.484>
VStem: 368 416<568.432 839.568>
LayerCount: 5
Back
Fore
SplineSet
576 912 m 4
 698.525 912 784 826.728125 784 704 c 4
 784 581.271875 698.525 496 576 496 c 4
 453.475 496 368 581.271875 368 704 c 4
 368 826.728125 453.475 912 576 912 c 4
EndSplineSet
Layer: 2
Layer: 3
Layer: 4
EndChar
StartChar: Euro
Encoding: 8364 8364 429
Width: 1024
VWidth: 0
Flags: W
HStem: -16 120<504.487 892.107> 512 120<127 243 373 768> 776 120<127 243 372 768> 1304 120<507.798 862.553>
VStem: 243 123<278.316 512 632 776 896 1120.46>
LayerCount: 5
Back
Fore
SplineSet
896 141 m 5
 896 17 l 5
 815 -2 730 -16 643 -16 c 4
 373 -16 248 200 245 512 c 5
 127 512 l 5
 127 632 l 5
 243 632 l 5
 243 681 243 727 243 776 c 5
 127 776 l 5
 127 896 l 5
 244 896 l 5
 249 1187 374 1424 643 1424 c 4
 719 1424 794 1413 866 1398 c 5
 866 1274 l 5
 791 1291 714 1304 643 1304 c 4
 454 1304 375 1113 372 896 c 5
 768 896 l 5
 768 776 l 5
 366 776 l 5
 366 728 366 680 366 632 c 5
 768 632 l 5
 768 512 l 5
 373 512 l 5
 374 274 454 104 643 104 c 4
 724 104 811 121 896 141 c 5
EndSplineSet
Layer: 2
Layer: 3
Layer: 4
EndChar
StartChar: arrowright
Encoding: 8594 8594 588
Width: 1024
VWidth: 0
Flags: W
HStem: 644 120<128 856.692>
LayerCount: 5
Back
Fore
SplineSet
856.692382812 764 m 5
 599 1099 l 5
 703 1167 l 5
 1024 738 l 5
 1024 670 l 5
 703 241 l 5
 599 309 l 5
 856.692382812 644 l 5
 128 644 l 5
 128 764 l 5
 856.692382812 764 l 5
EndSplineSet
Layer: 2
Layer: 3
Layer: 4
EndChar
StartChar: notequal
Encoding: 8800 8800 579
Width: 1024
VWidth: 0
Flags: W
HStem: 388 120<128 352.51 545.868 1024> 900 120<128 606.132 799.49 1024>
LayerCount: 5
Back
SplineSet
256 58 m 29
 896 1350 l 1053
EndSplineSet
Fore
SplineSet
545.868109253 508 m 5
 1024 508 l 5
 1024 388 l 5
 486.425384795 388 l 5
 357.632815136 128 l 5
 223.717030065 128 l 5
 352.509599725 388 l 5
 128 388 l 5
 128 508 l 5
 411.952324183 508 l 5
 606.131890747 900 l 5
 128 900 l 5
 128 1020 l 5
 665.574615205 1020 l 5
 794.367184864 1280 l 5
 928.282969935 1280 l 5
 799.490400275 1020 l 5
 1024 1020 l 5
 1024 900 l 5
 740.047675817 900 l 5
 545.868109253 508 l 5
EndSplineSet
Layer: 2
Layer: 3
Layer: 4
EndChar
StartChar: zero.slashed
Encoding: 57345 57345 499
Width: 1024
VWidth: 0
Flags: W
HStem: -18 124<471.533 680.514> 1302 124<471.486 680.467>
VStem: 253 124<415.309 1166.55> 775 124<241.453 992.691>
LayerCount: 5
Back
Fore
SplineSet
412 241 m 1
 442 164 494 106 576 106 c 0
 666 106 720 176 748 264 c 0
 775 348 775 515 775 704 c 0
 775 813 770 915 770 997 c 1
 412 241 l 1
576 1302 m 0
 486 1302 432 1232 404 1144 c 0
 377 1060 377 893 377 704 c 0
 377 595 382 493 382 411 c 1
 740 1167 l 1
 710 1244 658 1302 576 1302 c 0
576 1426 m 0
 741 1426 820 1315 860 1209 c 0
 899 1105 899 926 899 704 c 0
 899 482 899 303 860 199 c 0
 820 93 741 -18 576 -18 c 0
 411 -18 332 93 292 199 c 0
 253 303 253 482 253 704 c 0
 253 926 253 1105 292 1209 c 0
 332 1315 411 1426 576 1426 c 0
EndSplineSet
Layer: 2
Layer: 3
Layer: 4
EndChar
StartChar: W.alt
Encoding: 57351 57351 505
Width: 1024
VWidth: 0
Flags: W
HStem: 0 21G<128 266.032 886 1024> 1388 20G<128 256 896 1024>
VStem: 128 128<258 1408> 896 128<258 1408>
LayerCount: 5
Back
Fore
SplineSet
256 1408 m 5
 256 258 l 5
 266 258 l 5
 521 768 l 5
 631 768 l 5
 886 258 l 5
 896 258 l 5
 896 1408 l 5
 1024 1408 l 5
 1024 0 l 5
 896 0 l 5
 582 628 l 5
 571 628 l 5
 256 0 l 5
 128 0 l 5
 128 1408 l 5
 256 1408 l 5
EndSplineSet
Layer: 2
Layer: 3
Layer: 4
EndChar
StartChar: r.alt
Encoding: 57354 57354 508
Width: 1024
VWidth: 0
Flags: W
HStem: 0 120<256 512 640 896> 904 120<256 512> 920 120<762.25 1024>
VStem: 512 128<120 782.495 876 904>
LayerCount: 5
Back
Fore
SplineSet
256 0 m 5xb0
 256 120 l 5
 512 120 l 5
 512 904 l 5
 256 904 l 5
 256 1024 l 5
 640 1024 l 5xd0
 640 876 l 5
 650 876 l 5
 716 982 793 1040 921 1040 c 4
 953.84050938 1040 988.553412955 1038.7517372 1024 1036.63478185 c 5
 1024 915.707797544 l 5
 986.888776513 918.427271026 951.809970363 920 921 920 c 4
 845 920 791.232704406 902.721490451 747 866 c 4
 641 778 640 612 640 535 c 6
 640 120 l 5
 896 120 l 5
 896 0 l 5
 256 0 l 5xb0
EndSplineSet
Layer: 2
Layer: 3
Layer: 4
EndChar
StartChar: dollar.alt
Encoding: 57355 57355 509
Width: 1024
VWidth: 0
Flags: W
HStem: 0 21G<512 640> 114 120<234.559 512 640 827.859> 632 119<640 833.566> 1388 20G<512 640>
VStem: 152 128<846.214 1100.13> 512 128<0 115.804 234 632 761 1173 1289.49 1408> 912 128<308.569 561.816>
LayerCount: 5
Back
Fore
SplineSet
512 1174 m 5
 359 1161 280 1095 280 972 c 4
 280 865 338 819 412 787 c 4
 443 774 477 766 512 761 c 5
 512 1174 l 5
512 114 m 5
 405.885416667 121 285.854166667 143 178 167 c 5
 178 291 l 5
 284.984375 266 407.625 241 512 234 c 5
 512 640 l 5
 459 646 404 657 348 683 c 4
 240 733 152 817 152 972 c 4
 152 1144 269 1276 512 1294 c 5
 512 1408 l 5
 640 1408 l 5
 640 1293 l 5
 733.604519774 1284 845.242937853 1259 944 1233 c 5
 944 1108 l 5
 845.242937853 1135 732.745762712 1164 640 1173 c 5
 640 751 l 5
 690 748 742 744 792 731 c 4
 920 698 1040 619 1040 439 c 4
 1040 249 915 128 640 113 c 5
 640 0 l 5
 512 0 l 5
 512 114 l 5
640 233 m 5
 830 242 912 299 912 439 c 4
 912 565 832 601 744 619 c 4
 709 626 675 630 640 632 c 5
 640 233 l 5
EndSplineSet
Layer: 2
Layer: 3
Layer: 4
EndChar
